<svg width="13" height="10" viewBox="0 0 13 10" fill="none" xmlns="http://www.w3.org/2000/svg">
<path fill-rule="evenodd" clip-rule="evenodd" d="M5.90356 9.24286C5.63137 9.55508 5.15761 9.58753 4.84538 9.31534L0.257149 5.31534C0.0937701 5.17291 1.89487e-08 4.96676 0 4.75001C-1.89487e-08 4.53326 0.09377 4.32711 0.257149 4.18468L4.84538 0.184681C5.15761 -0.0875126 5.63137 -0.0550639 5.90356 0.25716C6.17576 0.569382 6.14331 1.04315 5.83109 1.31534L2.75161 4.00001L11.75 4.00001C12.1642 4.00001 12.5 4.3358 12.5 4.75001C12.5 5.16422 12.1642 5.50001 11.75 5.50001L2.75161 5.50001L5.83109 8.18468C6.14331 8.45687 6.17576 8.93064 5.90356 9.24286Z" fill="white"/>
</svg>
