<svg width="22" height="20" viewBox="0 0 22 20" fill="none" xmlns="http://www.w3.org/2000/svg">
<path d="M10.1662 1.56969C10.4542 0.810103 11.544 0.810103 11.8329 1.56969L13.6958 6.73021C13.8263 7.07221 14.1584 7.29991 14.5292 7.29991H19.1073C19.9533 7.29991 20.3222 8.35289 19.6572 8.86858L16.3993 11.7998C16.2534 11.912 16.1467 12.0676 16.0947 12.2441C16.0426 12.4207 16.0478 12.6092 16.1095 12.7826L17.2993 17.8252C17.5891 18.6352 16.6513 19.3309 15.9421 18.8323L11.517 16.0244C11.3655 15.9179 11.1848 15.8607 10.9996 15.8607C10.8143 15.8607 10.6336 15.9179 10.4821 16.0244L6.05698 18.8323C5.34871 19.3309 4.41005 18.6343 4.69984 17.8252L5.88959 12.7826C5.9513 12.6092 5.95651 12.4207 5.90444 12.2441C5.85238 12.0676 5.74573 11.912 5.5998 11.7998L2.34194 8.86858C1.67597 8.35289 2.04676 7.29991 2.89092 7.29991H7.46902C7.64927 7.30051 7.82546 7.24636 7.97427 7.14463C8.12308 7.0429 8.2375 6.89839 8.30238 6.73021L10.1653 1.56969H10.1662Z" stroke="#2F2E41" stroke-width="2" stroke-linecap="round" stroke-linejoin="round"/>
</svg>
