<svg width="36" height="36" viewBox="0 0 36 36" fill="none" xmlns="http://www.w3.org/2000/svg">
<path d="M25.5 28.5H10.5C9.70435 28.5 8.94129 28.1839 8.37868 27.6213C7.81607 27.0587 7.5 26.2957 7.5 25.5V10.5C7.5 9.70435 7.81607 8.94129 8.37868 8.37868C8.94129 7.81607 9.70435 7.5 10.5 7.5H25.5C26.2956 7.5 27.0587 7.81607 27.6213 8.37868C28.1839 8.94129 28.5 9.70435 28.5 10.5V25.5C28.5 26.2957 28.1839 27.0587 27.6213 27.6213C27.0587 28.1839 26.2956 28.5 25.5 28.5ZM10.5 10.5V25.5H25.5V10.5H10.5ZM16.5 23.043L12.45 19.0725L14.55 16.9275L16.5 18.834L21.45 13.9335L23.55 16.0665L16.5 23.0415V23.043Z" fill="#2F2E41"/>
</svg>
