<svg width="231" height="187" viewBox="0 0 231 187" fill="none" xmlns="http://www.w3.org/2000/svg">
<path d="M33.8276 169.508C78.9444 192.465 152.06 192.465 197.166 169.508C242.273 146.551 242.283 109.344 197.166 86.387C152.05 63.43 78.9338 63.4351 33.8276 86.387C-11.2785 109.339 -11.2732 146.556 33.8276 169.508Z" fill="#F5F5F5"/>
<path d="M20.4466 132.911H22.3468C23.2177 130.078 23.7886 127.166 24.0506 124.22C24.4646 118.765 21.7523 110.414 16.7841 107.617C11.816 104.82 9.12491 108.279 10.7916 111.236C12.4582 114.194 18.0793 122.606 18.1536 129.845L20.4466 132.911Z" fill="#FF725E"/>
<path d="M19.9901 132.911H20.5209C21.0395 129.339 21.0395 125.713 20.5209 122.141C19.661 115.063 17.2725 111.774 15.0538 109.489C15.0053 109.439 14.9383 109.41 14.8676 109.408C14.7969 109.406 14.7284 109.431 14.677 109.478C14.6256 109.526 14.5956 109.591 14.5936 109.66C14.5916 109.729 14.6178 109.795 14.6664 109.846C16.8267 112.064 19.1515 115.269 19.9742 122.198C20.5 125.75 20.5054 129.357 19.9901 132.911Z" fill="white"/>
<path d="M20.6004 132.911C19.6238 128.423 15.1864 123.087 10.9985 122.167C6.14183 121.133 3.77983 123.63 4.47516 125.786C5.17049 127.942 9.00807 128.945 12.7342 130.636C13.9889 131.202 15.1357 131.971 16.1259 132.911H20.6004Z" fill="#FF725E"/>
<path d="M18.8329 132.911H19.4008C17.3467 127.88 12.6758 124.292 8.8541 123.961C8.8195 123.957 8.78453 123.961 8.75124 123.971C8.71795 123.98 8.68703 123.997 8.6603 124.018C8.63358 124.04 8.61159 124.067 8.59565 124.097C8.5797 124.127 8.57012 124.16 8.56748 124.194C8.56305 124.228 8.56583 124.262 8.57563 124.295C8.58544 124.327 8.60207 124.358 8.62448 124.384C8.64689 124.41 8.67461 124.432 8.7059 124.447C8.73718 124.462 8.77137 124.471 8.80633 124.473C12.4157 124.788 16.8265 128.159 18.8329 132.911Z" fill="white"/>
<path d="M191.943 85.6062L195.919 87.6382L196.253 85.2133C194.284 79.8049 195.903 73.6727 198.032 71.1185C200.16 68.5643 199.751 66.6874 198.982 65.8498C198.212 65.0121 195.293 64.3762 192.405 67.6646C189.518 70.953 188.854 74.9447 189.337 78.9725C189.645 81.4905 191.004 84.0758 191.943 85.6062Z" fill="#FF725E"/>
<path opacity="0.2" d="M191.943 85.6062L195.919 87.6382L196.253 85.2133C194.284 79.8049 195.903 73.6727 198.032 71.1185C200.16 68.5643 199.751 66.6874 198.982 65.8498C198.212 65.0121 195.293 64.3762 192.405 67.6646C189.518 70.953 188.854 74.9447 189.337 78.9725C189.645 81.4905 191.004 84.0758 191.943 85.6062Z" fill="black"/>
<path d="M193.584 86.4438L194.369 86.8471C194.361 86.8326 194.353 86.8188 194.343 86.8058C193.217 85.5028 191.763 79.1224 192.373 75.3841C193.127 70.7669 195.558 67.7525 197.639 66.4754C197.664 66.4601 197.686 66.44 197.704 66.4162C197.721 66.3925 197.733 66.3656 197.74 66.3371C197.746 66.3086 197.747 66.2792 197.741 66.2505C197.736 66.2219 197.724 66.1946 197.708 66.1703C197.674 66.1209 197.622 66.0862 197.563 66.0736C197.503 66.0611 197.441 66.0716 197.389 66.1031C195.266 67.4319 192.697 70.5497 191.917 75.3169C191.354 78.7967 192.48 84.3084 193.584 86.4438Z" fill="white"/>
<path d="M195.999 76.3769C197.161 79.1535 197.156 80.5133 195.261 80.7977C193.552 81.0459 191.477 83.0675 193.403 86.3508L204.677 92.1107C204.706 91.4969 204.861 90.895 205.135 90.3414C205.409 89.7878 205.795 89.2939 206.27 88.8895C208.122 87.085 209.831 85.7252 209.566 83.719C209.3 81.7129 207.512 79.7791 207.214 78.0315C206.917 76.2838 207.83 75.2859 209.778 73.3263C211.726 71.3667 213.494 68.3264 210.893 66.9408C208.292 65.5551 205.314 67.9283 204.072 69.526C202.83 71.1237 201.694 71.8269 199.247 71.6924C196.8 71.558 194.836 73.6004 195.999 76.3769Z" fill="#FF725E"/>
<path d="M199.189 89.3083C199.136 80.7873 205.404 70.8082 208.892 68.7917C208.943 68.7597 208.98 68.7098 208.995 68.6521C209.01 68.5944 209.001 68.5333 208.971 68.4815C208.939 68.4318 208.889 68.3959 208.831 68.3815C208.772 68.367 208.71 68.3751 208.658 68.404C205.123 70.4722 198.801 80.4564 198.732 89.0859L199.189 89.3083Z" fill="white"/>
<path d="M200.866 80.4512C200.818 80.4619 200.768 80.4565 200.723 80.4358C200.679 80.4152 200.643 80.3805 200.622 80.3375C199.609 78.4972 198.757 76.5774 198.074 74.5982C198.065 74.5704 198.062 74.5411 198.064 74.512C198.067 74.4829 198.075 74.4545 198.089 74.4286C198.103 74.4027 198.122 74.3797 198.145 74.3609C198.167 74.342 198.194 74.3278 198.223 74.319C198.251 74.3102 198.281 74.3069 198.311 74.3094C198.341 74.3119 198.37 74.3201 198.397 74.3336C198.423 74.347 198.447 74.3654 198.466 74.3878C198.485 74.4101 198.5 74.4359 198.509 74.4638C199.186 76.4155 200.027 78.3092 201.025 80.1255C201.053 80.1784 201.059 80.24 201.041 80.297C201.024 80.3541 200.983 80.402 200.93 80.4305L200.866 80.4512Z" fill="white"/>
<path d="M199.359 85.6734C199.315 85.6813 199.27 85.6772 199.229 85.6617C199.188 85.6462 199.152 85.6198 199.125 85.5855C199.09 85.5361 199.077 85.4752 199.088 85.4161C199.099 85.357 199.133 85.3046 199.183 85.2701C201.469 83.7113 204.242 82.9797 207.023 83.2019C207.084 83.2095 207.139 83.2401 207.176 83.2872C207.213 83.3342 207.23 83.3937 207.222 83.4527C207.214 83.5117 207.183 83.5652 207.135 83.6016C207.086 83.6379 207.025 83.6541 206.965 83.6466C204.302 83.4492 201.65 84.1443 199.449 85.6166C199.423 85.6412 199.392 85.6605 199.359 85.6734Z" fill="white"/>
<path d="M132.745 33.6221L119.81 26.3472L106.88 33.6221L119.81 40.897L132.745 33.6221Z" fill="#F5F5F5"/>
<path d="M119.81 55.4519L132.745 48.177V33.622L119.81 40.8969V55.4519Z" fill="#EBEBEB"/>
<path d="M122.304 50.6227C122.236 50.6239 122.168 50.6079 122.108 50.5762C122.025 50.5174 121.96 50.439 121.917 50.3486C121.874 50.2581 121.856 50.1584 121.864 50.0591V48.508V48.3942H121.943L123.185 47.6859V49.4076C123.184 49.6294 123.127 49.8475 123.021 50.0436C122.915 50.2398 122.762 50.4082 122.575 50.5348C122.495 50.5876 122.401 50.618 122.304 50.6227ZM122.065 48.6217V50.0488C122.057 50.1152 122.065 50.1827 122.09 50.245C122.115 50.3074 122.156 50.3626 122.209 50.4055C122.252 50.4242 122.299 50.4312 122.346 50.4258C122.393 50.4203 122.437 50.4026 122.474 50.3745C122.633 50.2665 122.764 50.1237 122.856 49.9576C122.948 49.7915 122.999 49.6067 123.005 49.418V49.2939H122.543L122.453 48.6889L122.065 48.6217ZM122.702 49.0974H122.989V48.0374L122.246 48.4563L122.612 48.5235L122.702 49.0974Z" fill="white"/>
<path d="M122.527 51.8532C122.5 51.8532 122.475 51.8429 122.456 51.8244C122.437 51.806 122.426 51.781 122.426 51.755V50.4623C122.426 50.4492 122.428 50.4361 122.433 50.4239C122.437 50.4116 122.445 50.4005 122.454 50.3912C122.464 50.3819 122.475 50.3747 122.487 50.3701C122.5 50.3654 122.513 50.3634 122.527 50.3641C122.553 50.3641 122.579 50.3745 122.598 50.3929C122.617 50.4113 122.627 50.4363 122.627 50.4623V51.7343C122.629 51.7487 122.629 51.7634 122.625 51.7774C122.621 51.7914 122.614 51.8045 122.604 51.8157C122.595 51.827 122.583 51.8361 122.57 51.8426C122.556 51.849 122.542 51.8526 122.527 51.8532Z" fill="white"/>
<path d="M121.949 52.179C121.931 52.1788 121.914 52.1739 121.899 52.1648C121.884 52.1557 121.872 52.1427 121.864 52.1273C121.857 52.1167 121.852 52.1047 121.85 52.0921C121.847 52.0795 121.848 52.0665 121.852 52.0542C121.855 52.0419 121.862 52.0305 121.87 52.0208C121.879 52.0111 121.889 52.0033 121.901 51.998L123.053 51.3465C123.064 51.34 123.077 51.3358 123.09 51.3342C123.103 51.3325 123.117 51.3333 123.13 51.3367C123.142 51.34 123.154 51.3458 123.165 51.3537C123.175 51.3616 123.184 51.3715 123.191 51.3827C123.203 51.4056 123.206 51.4321 123.199 51.4569C123.192 51.4818 123.176 51.5033 123.154 51.5171L121.997 52.1635L121.949 52.179Z" fill="white"/>
<path d="M126.068 49.9454C126.031 49.9562 125.992 49.9562 125.956 49.9454C125.917 49.92 125.886 49.8852 125.866 49.8443C125.845 49.8035 125.836 49.7581 125.839 49.7127V49.449C125.839 49.4364 125.841 49.4237 125.845 49.4118C125.85 49.3999 125.856 49.389 125.865 49.3798C125.874 49.3706 125.885 49.3633 125.897 49.3583C125.909 49.3533 125.922 49.3507 125.935 49.3508C125.948 49.35 125.962 49.352 125.974 49.3567C125.987 49.3614 125.998 49.3686 126.008 49.3779C126.017 49.3872 126.025 49.3983 126.03 49.4105C126.034 49.4228 126.037 49.4359 126.036 49.449V49.6662C126.036 49.7075 126.036 49.7282 126.036 49.7282C126.036 49.7282 126.068 49.7282 126.099 49.7282C126.161 49.6736 126.21 49.6063 126.242 49.5312C126.274 49.4562 126.289 49.3751 126.285 49.2939V47.598C126.285 47.5853 126.288 47.5728 126.293 47.5611C126.298 47.5495 126.306 47.539 126.315 47.5303C126.325 47.5215 126.336 47.5148 126.348 47.5104C126.36 47.5061 126.373 47.5042 126.386 47.5049C126.411 47.5049 126.436 47.5147 126.454 47.5322C126.472 47.5496 126.482 47.5733 126.482 47.598V49.3249C126.486 49.44 126.462 49.5545 126.413 49.6594C126.365 49.7643 126.292 49.8568 126.2 49.9299C126.157 49.9432 126.112 49.9484 126.068 49.9454Z" fill="white"/>
<path d="M125.017 48.4407V48.2753C125.041 47.8446 125.17 47.4257 125.391 47.0521C125.612 46.6785 125.92 46.3607 126.291 46.1243C126.423 46.0157 126.587 45.9495 126.759 45.9345C126.932 45.9196 127.105 45.9567 127.255 46.0408C127.405 46.1249 127.525 46.252 127.598 46.4047C127.672 46.5575 127.695 46.7286 127.665 46.8947V46.9516L125.017 48.4407ZM126.885 46.145C126.71 46.1504 126.539 46.2022 126.391 46.295C126.076 46.4975 125.809 46.7632 125.608 47.0744C125.406 47.3856 125.275 47.7351 125.224 48.0995L127.464 46.843C127.472 46.721 127.448 46.5989 127.394 46.4884C127.34 46.378 127.258 46.2829 127.156 46.2122C127.073 46.1667 126.98 46.1435 126.885 46.145Z" fill="white"/>
<path d="M129.618 47.9598C129.592 47.9598 129.568 47.9502 129.549 47.9329C129.53 47.9156 129.519 47.8919 129.518 47.8667V44.568C129.518 44.5419 129.528 44.5169 129.547 44.4985C129.566 44.4801 129.591 44.4697 129.618 44.4697C129.645 44.4697 129.67 44.4801 129.689 44.4985C129.708 44.5169 129.718 44.5419 129.718 44.568V47.8667C129.717 47.8919 129.706 47.9156 129.687 47.9329C129.669 47.9502 129.644 47.9598 129.618 47.9598Z" fill="white"/>
<path d="M129.348 45.3178H129.311C129.298 45.3127 129.287 45.3053 129.278 45.2961C129.269 45.2869 129.262 45.2759 129.257 45.2639C129.252 45.2519 129.249 45.239 129.249 45.2261C129.25 45.2132 129.252 45.2004 129.258 45.1885L129.613 44.3923L130.006 44.8369C130.014 44.8464 130.021 44.8575 130.025 44.8694C130.029 44.8813 130.03 44.8938 130.029 44.9063C130.028 44.9188 130.025 44.9309 130.019 44.9421C130.013 44.9533 130.005 44.9632 129.995 44.9714C129.986 44.9795 129.974 44.9857 129.962 44.9896C129.95 44.9935 129.937 44.995 129.924 44.994C129.911 44.9931 129.899 44.9897 129.887 44.984C129.876 44.9783 129.866 44.9705 129.857 44.961L129.666 44.7542L129.438 45.2713C129.429 45.2865 129.416 45.299 129.4 45.3072C129.384 45.3155 129.366 45.3191 129.348 45.3178Z" fill="white"/>
<path d="M130.558 47.4531C130.532 47.4518 130.508 47.4409 130.49 47.4226C130.472 47.4043 130.462 47.3801 130.462 47.3549V44.0561C130.459 44.0417 130.459 44.0267 130.462 44.0123C130.466 43.9978 130.472 43.9843 130.482 43.9727C130.491 43.9611 130.503 43.9517 130.517 43.9453C130.53 43.9388 130.545 43.9355 130.56 43.9355C130.575 43.9355 130.59 43.9388 130.604 43.9453C130.618 43.9517 130.629 43.9611 130.639 43.9727C130.648 43.9843 130.655 43.9978 130.658 44.0123C130.661 44.0267 130.661 44.0417 130.658 44.0561V47.3549C130.658 47.3809 130.647 47.4059 130.629 47.4244C130.61 47.4428 130.584 47.4531 130.558 47.4531Z" fill="white"/>
<path d="M130.266 44.8059H130.229C130.217 44.8008 130.206 44.7934 130.196 44.7842C130.187 44.775 130.18 44.764 130.175 44.752C130.17 44.74 130.167 44.7272 130.168 44.7142C130.168 44.7013 130.171 44.6885 130.176 44.6766L130.531 43.8804L130.924 44.325C130.942 44.3432 130.952 44.3673 130.952 44.3923C130.952 44.4172 130.942 44.4413 130.924 44.4595C130.905 44.4769 130.879 44.4866 130.853 44.4866C130.826 44.4866 130.801 44.4769 130.781 44.4595L130.595 44.2475L130.367 44.7645C130.356 44.7801 130.341 44.7924 130.323 44.7997C130.305 44.807 130.285 44.8092 130.266 44.8059Z" fill="white"/>
<path d="M119.81 55.4519L106.874 48.177L106.88 33.622L119.81 40.8969V55.4519Z" fill="#E0E0E0"/>
<path d="M114.045 37.655L126.97 30.375L125.51 29.5529L112.58 36.8329L114.045 37.655Z" fill="white"/>
<path d="M108.838 41.9673L113.472 44.5525C113.739 44.7235 113.96 44.9528 114.12 45.2222C114.279 45.4915 114.372 45.7933 114.39 46.1037V48.8854C114.39 49.4593 113.976 49.692 113.472 49.4024L108.838 46.8172C108.572 46.6465 108.349 46.4172 108.19 46.1479C108.031 45.8785 107.938 45.5765 107.92 45.2661V42.4843C107.92 41.9104 108.334 41.6829 108.838 41.9673Z" fill="#FF725E"/>
<path d="M108.483 42.6601L108.657 42.7635V45.8503L108.483 45.7521V42.6601Z" fill="#FF725E"/>
<path d="M109.199 43.0635L109.502 43.2393V46.3261L109.199 46.1554V43.0635Z" fill="#FF725E"/>
<path d="M109.916 43.4667L110.09 43.5649V46.6569L109.916 46.5586V43.4667Z" fill="#FF725E"/>
<path d="M110.452 43.7666L110.808 43.9683V47.0602L110.452 46.8534V43.7666Z" fill="#FF725E"/>
<path d="M111.344 44.2733L111.523 44.3715V47.4635L111.344 47.3601V44.2733Z" fill="#FF725E"/>
<path d="M111.864 44.5577L112.235 44.7748V47.8616L111.858 47.6445L111.864 44.5577Z" fill="#FF725E"/>
<path d="M112.777 45.08L112.951 45.1782V48.265L112.777 48.1667V45.08Z" fill="#FF725E"/>
<path d="M113.185 45.3022L113.275 45.354V48.4407L113.185 48.3942V45.3022Z" fill="#FF725E"/>
<path d="M112.453 44.9092L112.538 44.9609V48.0477L112.453 48.0012V44.9092Z" fill="#FF725E"/>
<path d="M111.009 44.0872L111.094 44.1337V47.2256L111.009 47.1739V44.0872Z" fill="#FF725E"/>
<path d="M110.218 43.6425L110.308 43.6942V46.7861L110.218 46.7344V43.6425Z" fill="#FF725E"/>
<path d="M109.65 43.3374L109.74 43.3891V46.4811L109.65 46.4294V43.3374Z" fill="#FF725E"/>
<path d="M108.881 42.8824L108.971 42.9341V46.0261L108.881 45.9744V42.8824Z" fill="#FF725E"/>
<path d="M113.493 45.478L113.668 45.5763V48.6682L113.493 48.57V45.478Z" fill="#FF725E"/>
<path d="M115.5 31.1971L100.404 22.7123L85.3138 31.1971L100.404 39.687L115.5 31.1971Z" fill="#F5F5F5"/>
<path d="M93.9339 36.047L109.029 27.5622L107.564 26.7401L92.4742 35.2249L93.9339 36.047Z" fill="white"/>
<path d="M100.404 66.3616L115.5 57.8769V31.1971L100.404 39.687V66.3616Z" fill="#EBEBEB"/>
<path d="M102.899 61.5582C102.83 61.5594 102.761 61.5415 102.702 61.5065C102.619 61.4488 102.552 61.3707 102.509 61.2799C102.466 61.1891 102.449 61.0889 102.458 60.9895V59.4383V59.3246H102.543L103.78 58.6162V60.338C103.777 60.5596 103.721 60.7774 103.614 60.9734C103.508 61.1694 103.356 61.338 103.169 61.4652C103.09 61.5198 102.996 61.552 102.899 61.5582ZM102.66 59.5572V60.9843C102.651 61.0507 102.66 61.1182 102.685 61.1806C102.71 61.2429 102.75 61.2981 102.803 61.3411C102.846 61.3598 102.894 61.3668 102.94 61.3613C102.987 61.3558 103.031 61.3381 103.069 61.31C103.228 61.202 103.358 61.0592 103.451 60.8931C103.543 60.727 103.594 60.5422 103.599 60.3535V60.2294H103.138L103.047 59.6245L102.66 59.5572ZM103.297 60.0329H103.61V58.973L102.867 59.397L103.233 59.459L103.297 60.0329Z" fill="white"/>
<path d="M103.121 62.7682C103.095 62.7682 103.069 62.7578 103.05 62.7394C103.031 62.721 103.021 62.696 103.021 62.6699V61.3721C103.021 61.3595 103.023 61.3469 103.029 61.3353C103.034 61.3236 103.041 61.3131 103.051 61.3044C103.06 61.2957 103.071 61.289 103.083 61.2846C103.095 61.2803 103.108 61.2784 103.121 61.2791C103.147 61.279 103.172 61.2887 103.19 61.306C103.209 61.3233 103.22 61.347 103.222 61.3721V62.6699C103.22 62.6956 103.209 62.7199 103.191 62.738C103.172 62.7562 103.147 62.7669 103.121 62.7682Z" fill="white"/>
<path d="M102.548 63.1093C102.531 63.1097 102.514 63.1056 102.499 63.0974C102.484 63.0892 102.472 63.0773 102.463 63.0628C102.451 63.0399 102.448 63.0134 102.455 62.9886C102.462 62.9637 102.478 62.9423 102.501 62.9284L103.652 62.2821C103.664 62.2756 103.677 62.2714 103.69 62.2697C103.703 62.268 103.716 62.2689 103.729 62.2722C103.742 62.2756 103.754 62.2814 103.764 62.2893C103.775 62.2972 103.784 62.307 103.79 62.3183C103.797 62.3291 103.801 62.341 103.803 62.3535C103.804 62.3659 103.804 62.3785 103.8 62.3906C103.797 62.4027 103.791 62.4139 103.783 62.4237C103.775 62.4335 103.765 62.4416 103.753 62.4475L102.596 63.099C102.582 63.1072 102.565 63.1109 102.548 63.1093Z" fill="white"/>
<path d="M106.662 60.8602C106.623 60.8603 106.585 60.8515 106.551 60.8344C106.512 60.809 106.481 60.7742 106.46 60.7333C106.44 60.6925 106.43 60.6471 106.434 60.6017V60.3328C106.434 60.3202 106.436 60.3076 106.441 60.296C106.447 60.2843 106.454 60.2738 106.464 60.2651C106.473 60.2564 106.484 60.2497 106.496 60.2453C106.509 60.2409 106.522 60.2391 106.535 60.2398C106.547 60.2398 106.56 60.2422 106.571 60.2468C106.583 60.2515 106.593 60.2584 106.602 60.267C106.611 60.2757 106.618 60.2859 106.623 60.2972C106.628 60.3085 106.63 60.3206 106.63 60.3328V60.6017C106.63 60.6379 106.63 60.6586 106.63 60.6637C106.63 60.6689 106.662 60.6637 106.694 60.6637C106.756 60.6081 106.805 60.5399 106.837 60.464C106.869 60.3881 106.883 60.3063 106.88 60.2243V58.5025C106.88 58.4764 106.89 58.4514 106.909 58.433C106.928 58.4146 106.954 58.4042 106.98 58.4042C107.007 58.4055 107.032 58.4162 107.05 58.4344C107.069 58.4526 107.08 58.4768 107.081 58.5025V60.2243C107.086 60.34 107.063 60.4553 107.013 60.5605C106.963 60.6657 106.888 60.7578 106.795 60.8292C106.753 60.8493 106.708 60.8599 106.662 60.8602Z" fill="white"/>
<path d="M105.611 59.3557V59.1851C105.636 58.7552 105.765 58.3372 105.986 57.9645C106.207 57.5918 106.515 57.2749 106.885 57.0393C107.018 56.9307 107.181 56.8644 107.354 56.8495C107.526 56.8345 107.699 56.8716 107.849 56.9558C107.999 57.0399 108.119 57.1669 108.193 57.3197C108.266 57.4725 108.29 57.6435 108.26 57.8097V57.8666L105.611 59.3557ZM107.48 57.0548C107.305 57.0626 107.135 57.1143 106.986 57.2048C106.67 57.4079 106.402 57.6744 106.201 57.9865C106 58.2987 105.869 58.6491 105.818 59.0144L108.058 57.758C108.066 57.6353 108.042 57.5127 107.988 57.4015C107.934 57.2903 107.852 57.1942 107.75 57.122C107.667 57.078 107.574 57.0549 107.48 57.0548Z" fill="white"/>
<path d="M110.234 58.8747C110.207 58.8747 110.182 58.8644 110.163 58.8459C110.144 58.8275 110.133 58.8025 110.133 58.7765V55.4777C110.133 55.4516 110.144 55.4267 110.163 55.4082C110.182 55.3898 110.207 55.3795 110.234 55.3795C110.26 55.3795 110.286 55.3898 110.305 55.4082C110.324 55.4267 110.334 55.4516 110.334 55.4777V58.7765C110.334 58.8025 110.324 58.8275 110.305 58.8459C110.286 58.8644 110.26 58.8747 110.234 58.8747Z" fill="white"/>
<path d="M109.942 56.2327H109.905C109.893 56.2281 109.882 56.2213 109.873 56.2125C109.864 56.2037 109.856 56.1933 109.851 56.1817C109.847 56.1701 109.844 56.1576 109.844 56.1451C109.844 56.1325 109.847 56.1201 109.852 56.1086L110.208 55.3123L110.601 55.757C110.617 55.7762 110.626 55.8011 110.624 55.8263C110.622 55.8515 110.61 55.875 110.59 55.8914C110.57 55.9079 110.545 55.916 110.519 55.9141C110.493 55.9121 110.469 55.9003 110.452 55.8811L110.261 55.6691L110.033 56.1861C110.024 56.2014 110.01 56.2139 109.994 56.2221C109.978 56.2304 109.96 56.234 109.942 56.2327Z" fill="white"/>
<path d="M111.152 58.3629C111.127 58.3629 111.103 58.3531 111.085 58.3357C111.067 58.3182 111.057 58.2945 111.057 58.2698V54.9711C111.056 54.9584 111.058 54.9458 111.063 54.9339C111.067 54.922 111.074 54.9111 111.083 54.9019C111.092 54.8927 111.103 54.8854 111.114 54.8804C111.126 54.8754 111.139 54.8728 111.152 54.8728C111.166 54.8721 111.179 54.8741 111.191 54.8788C111.204 54.8834 111.215 54.8907 111.225 54.8999C111.234 54.9092 111.242 54.9203 111.246 54.9326C111.251 54.9449 111.253 54.958 111.253 54.9711V58.2698C111.253 58.2825 111.25 58.2951 111.245 58.3067C111.24 58.3183 111.232 58.3288 111.223 58.3376C111.213 58.3463 111.202 58.353 111.19 58.3574C111.178 58.3617 111.165 58.3636 111.152 58.3629Z" fill="white"/>
<path d="M110.866 55.7208H110.823C110.8 55.7095 110.781 55.69 110.771 55.6661C110.761 55.6422 110.761 55.6156 110.77 55.5915L111.126 54.7952L111.524 55.2399C111.541 55.2586 111.55 55.2825 111.55 55.3071C111.55 55.3318 111.541 55.3556 111.524 55.3743C111.515 55.3835 111.504 55.3909 111.491 55.3959C111.479 55.4009 111.466 55.4034 111.452 55.4034C111.439 55.4034 111.426 55.4009 111.414 55.3959C111.401 55.3909 111.39 55.3835 111.381 55.3743L111.195 55.1623L110.967 55.6794C110.956 55.6955 110.941 55.7081 110.923 55.7155C110.905 55.7229 110.885 55.7247 110.866 55.7208Z" fill="white"/>
<path d="M100.404 66.3616L85.3138 57.8769V31.1971L100.404 39.687V66.3616Z" fill="#E0E0E0"/>
<path d="M88.3819 52.3289L93.0103 54.9142C93.2781 55.0843 93.5012 55.3133 93.6616 55.5827C93.822 55.8521 93.9153 56.1544 93.9339 56.4653V59.2522C93.9339 59.821 93.5199 60.0536 93.0103 59.7693L88.3819 57.184C88.1142 57.0142 87.8915 56.7852 87.7319 56.5156C87.5724 56.2461 87.4804 55.9436 87.4636 55.6329V52.8511C87.4636 52.2514 87.8776 52.0445 88.3819 52.3289Z" fill="#F5F5F5"/>
<path d="M88.0261 53.0218L88.2005 53.1252V56.212L88.0261 56.1137V53.0218Z" fill="#E0E0E0"/>
<path d="M88.7428 53.4251L89.0453 53.6009V56.6929L88.7428 56.5171V53.4251Z" fill="#E0E0E0"/>
<path d="M89.454 53.8284L89.6336 53.9266L89.6283 57.0186L89.454 56.9203V53.8284Z" fill="#E0E0E0"/>
<path d="M89.9955 54.1283L90.3458 54.3299V57.4219L89.9955 57.2151V54.1283Z" fill="#E0E0E0"/>
<path d="M90.8871 54.6349L91.0614 54.7331V57.8251L90.8871 57.7217V54.6349Z" fill="#E0E0E0"/>
<path d="M91.402 54.9194L91.7788 55.1365V58.2233L91.402 58.0062V54.9194Z" fill="#E0E0E0"/>
<path d="M92.3201 55.4364L92.4944 55.5398V58.6266L92.3201 58.5284V55.4364Z" fill="#E0E0E0"/>
<path d="M92.729 55.6639L92.8188 55.7156V58.8076L92.729 58.7559V55.6639Z" fill="#E0E0E0"/>
<path d="M91.9965 55.2709L92.081 55.3226V58.4094L91.9965 58.3629V55.2709Z" fill="#E0E0E0"/>
<path d="M90.5527 54.4488L90.6373 54.4953V57.5873L90.5527 57.5356V54.4488Z" fill="#E0E0E0"/>
<path d="M89.7618 54.0042L89.8464 54.0559V57.1478L89.7618 57.0961V54.0042Z" fill="#E0E0E0"/>
<path d="M89.1938 53.6991L89.2837 53.7508V56.8428L89.1938 56.7911V53.6991Z" fill="#E0E0E0"/>
<path d="M88.4242 53.2441L88.514 53.2958V56.3877L88.4242 56.336V53.2441Z" fill="#E0E0E0"/>
<path d="M93.0369 55.8397L93.2112 55.9379V59.0299L93.0369 58.9316V55.8397Z" fill="#E0E0E0"/>
<path d="M92.4742 38.6685L93.9339 39.4906V36.047L92.4742 35.2249V38.6685Z" fill="#F0F0F0"/>
<path d="M70.2183 59.0867L59.438 53.0269L44.3478 61.5117L55.128 67.5767L70.2183 59.0867Z" fill="#F5F5F5"/>
<path d="M55.1279 91.8263L70.2182 83.3415V59.0867L55.1279 67.5767V91.8263Z" fill="#EBEBEB"/>
<path d="M57.6174 87.0023C57.5499 87.0036 57.4835 86.9856 57.4264 86.9505C57.343 86.8925 57.2767 86.8143 57.2338 86.7236C57.191 86.6329 57.1732 86.5329 57.1822 86.4335V84.8823V84.7686H57.2618L58.5039 84.0602V85.782C58.5012 86.0036 58.4445 86.2214 58.3384 86.4174C58.2322 86.6134 58.0797 86.782 57.8934 86.9092C57.8115 86.9633 57.7163 86.9954 57.6174 87.0023ZM57.3839 85.0013V86.4283C57.374 86.4948 57.382 86.5626 57.4072 86.6252C57.4323 86.6877 57.4736 86.7428 57.5272 86.7851C57.5706 86.8018 57.6176 86.8077 57.6639 86.8022C57.7103 86.7968 57.7545 86.7803 57.7926 86.7541C57.9516 86.646 58.0823 86.5032 58.1745 86.3372C58.2667 86.1711 58.3177 85.9863 58.3234 85.7975V85.6734H57.8616L57.7714 85.0685L57.3839 85.0013ZM58.0208 85.477H58.3075V84.4118L57.5644 84.8358L57.9306 84.8979L58.0208 85.477Z" fill="white"/>
<path d="M57.8451 88.2328C57.8185 88.2328 57.793 88.2225 57.7742 88.2041C57.7553 88.1856 57.7448 88.1606 57.7448 88.1346V86.8368C57.7447 86.8241 57.7474 86.8116 57.7525 86.7999C57.7576 86.7883 57.7651 86.7778 57.7744 86.7691C57.7838 86.7604 57.795 86.7536 57.8071 86.7493C57.8193 86.7449 57.8322 86.743 57.8451 86.7437C57.8704 86.7437 57.8945 86.7535 57.9124 86.771C57.9302 86.7884 57.9402 86.8121 57.9402 86.8368V88.1346C57.9403 88.1598 57.9304 88.184 57.9127 88.2023C57.895 88.2206 57.8708 88.2315 57.8451 88.2328Z" fill="white"/>
<path d="M57.2671 88.5534C57.2498 88.5544 57.2327 88.5505 57.2176 88.5423C57.2026 88.534 57.1903 88.5218 57.1822 88.5069C57.1745 88.4962 57.1693 88.4841 57.1668 88.4714C57.1642 88.4586 57.1645 88.4455 57.1675 88.4328C57.1705 88.4201 57.1762 88.4082 57.1842 88.3978C57.1922 88.3874 57.2024 88.3788 57.214 88.3725L58.3711 87.7262C58.3826 87.7197 58.3953 87.7155 58.4085 87.7138C58.4216 87.7121 58.435 87.713 58.4478 87.7163C58.4607 87.7197 58.4727 87.7255 58.4832 87.7334C58.4937 87.7413 58.5025 87.7511 58.5091 87.7623C58.5157 87.7731 58.5199 87.7851 58.5216 87.7976C58.5232 87.81 58.5223 87.8226 58.5188 87.8347C58.5153 87.8468 58.5094 87.858 58.5014 87.8678C58.4933 87.8776 58.4833 87.8857 58.472 87.8916L57.3149 88.5431C57.3004 88.5513 57.2837 88.555 57.2671 88.5534Z" fill="white"/>
<path d="M61.3861 86.3249C61.3474 86.325 61.3092 86.3162 61.2746 86.2991C61.2359 86.2737 61.2047 86.2389 61.1842 86.198C61.1637 86.1572 61.1546 86.1118 61.1579 86.0664V85.7975C61.1579 85.7729 61.1679 85.7492 61.1859 85.7317C61.2038 85.7143 61.2281 85.7045 61.2534 85.7045C61.2664 85.7038 61.2794 85.7057 61.2916 85.71C61.3038 85.7144 61.315 85.7211 61.3244 85.7298C61.3339 85.7385 61.3414 85.749 61.3465 85.7607C61.3517 85.7723 61.3543 85.7849 61.3543 85.7975V86.0664C61.3543 86.1026 61.3543 86.1233 61.3543 86.1285C61.3543 86.1336 61.3861 86.1285 61.418 86.1285C61.4788 86.072 61.5268 86.0037 61.5588 85.9279C61.5908 85.8522 61.6061 85.7708 61.6037 85.689V83.9672C61.6003 83.9528 61.6002 83.9378 61.6035 83.9233C61.6068 83.9089 61.6135 83.8954 61.6229 83.8838C61.6323 83.8722 61.6444 83.8628 61.658 83.8563C61.6717 83.8499 61.6867 83.8466 61.7019 83.8466C61.7171 83.8466 61.7321 83.8499 61.7458 83.8563C61.7595 83.8628 61.7715 83.8722 61.781 83.8838C61.7904 83.8954 61.797 83.9089 61.8003 83.9233C61.8037 83.9378 61.8036 83.9528 61.8001 83.9672V85.689C61.8045 85.8041 61.7814 85.9187 61.7325 86.0237C61.6837 86.1287 61.6106 86.2212 61.5188 86.2939C61.4776 86.314 61.4322 86.3246 61.3861 86.3249Z" fill="white"/>
<path d="M60.3352 84.8255V84.6549C60.3603 84.2251 60.4887 83.807 60.71 83.4343C60.9312 83.0616 61.2392 82.7447 61.6091 82.5091C61.7409 82.3994 61.9044 82.3321 62.0772 82.3166C62.2499 82.3011 62.4232 82.3382 62.5734 82.4227C62.7236 82.5072 62.8432 82.6349 62.9158 82.7884C62.9883 82.9418 63.0102 83.1134 62.9785 83.2795V83.3364L60.3352 84.8255ZM62.2036 82.5247C62.0285 82.5325 61.8585 82.5841 61.7099 82.6746C61.3941 82.8777 61.1265 83.1442 60.9251 83.4564C60.7237 83.7685 60.5931 84.119 60.5422 84.4843L62.7821 83.2227C62.7896 83.1008 62.7653 82.979 62.7115 82.8687C62.6576 82.7584 62.576 82.6632 62.4743 82.5919C62.3932 82.5469 62.3021 82.522 62.2089 82.5195L62.2036 82.5247Z" fill="white"/>
<path d="M64.9577 84.3395C64.931 84.3395 64.9055 84.3291 64.8867 84.3107C64.8679 84.2923 64.8573 84.2673 64.8573 84.2413V80.9425C64.8573 80.9164 64.8679 80.8914 64.8867 80.873C64.9055 80.8546 64.931 80.8442 64.9577 80.8442C64.9843 80.8442 65.0098 80.8546 65.0287 80.873C65.0475 80.8914 65.0581 80.9164 65.0581 80.9425V84.2413C65.0581 84.2673 65.0475 84.2923 65.0287 84.3107C65.0098 84.3291 64.9843 84.3395 64.9577 84.3395Z" fill="white"/>
<path d="M64.6664 81.7231H64.6292C64.6172 81.7186 64.6062 81.7118 64.597 81.703C64.5877 81.6942 64.5804 81.6837 64.5755 81.6721C64.5705 81.6605 64.568 81.6481 64.5681 81.6355C64.5682 81.623 64.571 81.6106 64.5761 81.599L64.9317 80.8028L65.3245 81.2475C65.3414 81.2667 65.3498 81.2916 65.3478 81.3168C65.3458 81.342 65.3336 81.3654 65.3139 81.3819C65.3042 81.39 65.2928 81.3962 65.2806 81.4001C65.2684 81.404 65.2555 81.4055 65.2427 81.4046C65.2168 81.4026 65.1928 81.3908 65.1759 81.3716L64.9848 81.1596L64.7566 81.6766C64.7476 81.6919 64.7344 81.7044 64.7184 81.7126C64.7024 81.7208 64.6844 81.7245 64.6664 81.7231Z" fill="white"/>
<path d="M65.876 83.8276C65.8503 83.8276 65.8255 83.818 65.8068 83.8007C65.7882 83.7833 65.777 83.7597 65.7756 83.7345V80.4357C65.7756 80.4097 65.7862 80.3847 65.805 80.3663C65.8239 80.3478 65.8494 80.3375 65.876 80.3375C65.8894 80.3367 65.9028 80.3388 65.9153 80.3434C65.9278 80.3481 65.9392 80.3553 65.9487 80.3646C65.9582 80.3739 65.9655 80.385 65.9703 80.3973C65.9751 80.4095 65.9772 80.4226 65.9764 80.4357V83.7345C65.9764 83.7472 65.9738 83.7597 65.9687 83.7714C65.9636 83.783 65.9561 83.7935 65.9467 83.8022C65.9373 83.8109 65.9262 83.8177 65.914 83.822C65.9019 83.8264 65.8889 83.8283 65.876 83.8276Z" fill="white"/>
<path d="M65.5846 81.2062C65.5726 81.2105 65.5594 81.2105 65.5474 81.2062C65.5354 81.2016 65.5244 81.1948 65.5152 81.186C65.506 81.1773 65.4986 81.1668 65.4937 81.1552C65.4887 81.1436 65.4862 81.1311 65.4863 81.1186C65.4864 81.106 65.4892 81.0936 65.4943 81.0821L65.85 80.2858L66.2427 80.7305C66.2603 80.7487 66.27 80.7727 66.27 80.7977C66.27 80.8227 66.2603 80.8467 66.2427 80.8649C66.2334 80.8741 66.2222 80.8815 66.2099 80.8865C66.1976 80.8915 66.1844 80.894 66.1711 80.894C66.1578 80.894 66.1446 80.8915 66.1323 80.8865C66.12 80.8815 66.1088 80.8741 66.0994 80.8649L65.9137 80.6529L65.6854 81.17C65.6738 81.1847 65.6582 81.1959 65.6404 81.2023C65.6225 81.2087 65.6032 81.21 65.5846 81.2062Z" fill="white"/>
<path d="M55.128 91.8263L44.3478 85.7665V61.5117L55.128 67.5767V91.8263Z" fill="#E0E0E0"/>
<path d="M49.353 67.7731L50.8127 68.5953V65.1517L49.353 64.3296V67.7731Z" fill="#F5F5F5"/>
<path d="M50.8127 65.1517L65.9082 56.6618L64.4433 55.8397L49.353 64.3296L50.8127 65.1517Z" fill="white"/>
<path d="M50.8127 79.7015L31.4125 68.7917L12.007 79.7015L31.4125 90.6164L50.8127 79.7015Z" fill="#F5F5F5"/>
<path d="M31.4126 105.166L50.8128 94.2565V79.7015L31.4126 90.6165V105.166Z" fill="#EBEBEB"/>
<path d="M33.9019 100.337C33.8347 100.336 33.769 100.318 33.7108 100.285C33.6278 100.227 33.5618 100.149 33.519 100.058C33.4762 99.9674 33.4582 99.8676 33.4666 99.7682V98.217V98.1033H33.5462L34.7883 97.3898V99.1167C34.7848 99.3374 34.7277 99.5542 34.6216 99.7492C34.5155 99.9443 34.3634 100.112 34.1779 100.239C34.0962 100.294 34.0011 100.328 33.9019 100.337ZM33.663 98.336V99.763C33.6536 99.8287 33.6618 99.8957 33.6869 99.9573C33.7121 100.019 33.7532 100.073 33.8063 100.115C33.8498 100.134 33.8977 100.142 33.9453 100.137C33.9928 100.133 34.0383 100.116 34.077 100.089C34.2354 99.9801 34.3657 99.8372 34.4578 99.6713C34.5499 99.5053 34.6013 99.3208 34.6078 99.1322V99.003H34.1301L34.0399 98.398L33.663 98.336ZM34.3 98.8117H34.6078V97.7517L33.87 98.1757L34.2363 98.2377L34.3 98.8117Z" fill="white"/>
<path d="M34.1243 101.568C34.1119 101.568 34.0995 101.565 34.088 101.561C34.0764 101.556 34.0659 101.549 34.0571 101.54C34.0483 101.532 34.0413 101.521 34.0365 101.51C34.0317 101.499 34.0293 101.487 34.0293 101.475V100.177C34.0258 100.162 34.0257 100.147 34.029 100.133C34.0323 100.118 34.0389 100.105 34.0483 100.093C34.0577 100.082 34.0697 100.072 34.0833 100.066C34.0969 100.059 34.1119 100.056 34.127 100.056C34.1421 100.056 34.157 100.059 34.1707 100.066C34.1843 100.072 34.1962 100.082 34.2056 100.093C34.215 100.105 34.2216 100.118 34.2249 100.133C34.2282 100.147 34.2282 100.162 34.2247 100.177V101.475C34.2247 101.487 34.2221 101.5 34.217 101.511C34.2119 101.523 34.2044 101.534 34.195 101.542C34.1856 101.551 34.1745 101.558 34.1624 101.562C34.1502 101.566 34.1373 101.568 34.1243 101.568Z" fill="white"/>
<path d="M33.5463 101.888C33.5251 101.887 33.5048 101.879 33.4884 101.866C33.472 101.853 33.4603 101.835 33.455 101.815C33.4497 101.794 33.451 101.773 33.4588 101.754C33.4667 101.735 33.4806 101.718 33.4986 101.707L34.6557 101.061C34.6662 101.053 34.6782 101.048 34.6909 101.046C34.7036 101.044 34.7167 101.044 34.7293 101.047C34.7419 101.05 34.7537 101.055 34.7639 101.063C34.7741 101.071 34.7824 101.081 34.7884 101.092C34.796 101.103 34.8012 101.115 34.8038 101.127C34.8063 101.14 34.806 101.153 34.803 101.166C34.8 101.179 34.7943 101.191 34.7863 101.201C34.7783 101.211 34.7682 101.22 34.7565 101.226L33.5994 101.888H33.5463Z" fill="white"/>
<path d="M37.6652 99.6649C37.6302 99.6725 37.594 99.6725 37.559 99.6649C37.5185 99.6397 37.4857 99.6043 37.4642 99.5624C37.4427 99.5205 37.4333 99.4737 37.4369 99.427V99.1633C37.4369 99.1373 37.4476 99.1123 37.4665 99.0939C37.4854 99.0754 37.511 99.0651 37.5378 99.0651C37.5645 99.0651 37.5902 99.0754 37.6091 99.0939C37.628 99.1123 37.6386 99.1373 37.6386 99.1633V99.427C37.6313 99.4489 37.6313 99.4724 37.6386 99.4942C37.6386 99.4942 37.6705 99.4942 37.7076 99.4942C37.7675 99.4373 37.8145 99.3688 37.8456 99.2931C37.8767 99.2174 37.8912 99.1362 37.8881 99.0548V97.333C37.8894 97.3073 37.9004 97.2831 37.9191 97.2649C37.9377 97.2467 37.9626 97.236 37.989 97.2347C38.0157 97.2347 38.0413 97.2451 38.0603 97.2635C38.0792 97.2819 38.0898 97.3069 38.0898 97.333V99.0548C38.0942 99.1699 38.071 99.2845 38.0222 99.3895C37.9734 99.4945 37.9002 99.587 37.8085 99.6597C37.7618 99.6724 37.7127 99.6742 37.6652 99.6649Z" fill="white"/>
<path d="M36.6196 98.1602V97.9896C36.6427 97.5593 36.7702 97.1405 36.9916 96.7675C37.213 96.3945 37.5221 96.0779 37.8935 95.8439C38.0253 95.7341 38.1889 95.6668 38.3616 95.6513C38.5343 95.6358 38.7077 95.6729 38.8579 95.7574C39.0081 95.8419 39.1277 95.9697 39.2002 96.1231C39.2727 96.2766 39.2947 96.4482 39.2629 96.6143V96.6711L36.6196 98.1602ZM38.488 95.8594C38.3115 95.8681 38.14 95.9196 37.9891 96.0093C37.6742 96.2129 37.4076 96.4797 37.2071 96.7918C37.0067 97.1039 36.8769 97.4541 36.8266 97.819L39.0612 96.5574C39.0698 96.4359 39.0465 96.3143 38.9936 96.2039C38.9407 96.0936 38.8599 95.9981 38.7587 95.9266C38.6762 95.881 38.5828 95.8578 38.488 95.8594Z" fill="white"/>
<path d="M41.2423 97.6793C41.2289 97.6801 41.2155 97.678 41.203 97.6734C41.1905 97.6687 41.1791 97.6615 41.1696 97.6522C41.1601 97.6429 41.1528 97.6318 41.148 97.6195C41.1432 97.6073 41.1412 97.5942 41.1419 97.5811V94.2823C41.1385 94.2679 41.1384 94.2529 41.1417 94.2385C41.145 94.224 41.1516 94.2105 41.161 94.1989C41.1704 94.1873 41.1824 94.1779 41.196 94.1715C41.2096 94.165 41.2245 94.1617 41.2397 94.1617C41.2548 94.1617 41.2697 94.165 41.2833 94.1715C41.297 94.1779 41.3089 94.1873 41.3183 94.1989C41.3277 94.2105 41.3343 94.224 41.3376 94.2385C41.3409 94.2529 41.3408 94.2679 41.3374 94.2823V97.5811C41.3381 97.5937 41.3362 97.6064 41.3317 97.6183C41.3273 97.6302 41.3204 97.6411 41.3115 97.6503C41.3026 97.6595 41.2919 97.6668 41.28 97.6718C41.2681 97.6768 41.2552 97.6793 41.2423 97.6793Z" fill="white"/>
<path d="M40.9773 95.0373H40.9349C40.9226 95.0323 40.9116 95.0249 40.9024 95.0155C40.8933 95.0062 40.8862 94.9951 40.8817 94.9829C40.8773 94.9707 40.8754 94.9578 40.8763 94.9449C40.8773 94.932 40.8809 94.9194 40.8871 94.908L41.2374 94.1118L41.6355 94.5564C41.6531 94.5763 41.6619 94.6022 41.6599 94.6284C41.6579 94.6545 41.6453 94.6789 41.6249 94.696C41.6045 94.7132 41.5779 94.7217 41.551 94.7198C41.5242 94.7178 41.4992 94.7056 41.4816 94.6857L41.2958 94.4737L41.0676 94.9907C41.0581 95.0056 41.0448 95.0178 41.0289 95.0259C41.0131 95.0341 40.9953 95.038 40.9773 95.0373Z" fill="white"/>
<path d="M42.1606 97.1675C42.1339 97.1675 42.1084 97.1571 42.0896 97.1387C42.0708 97.1203 42.0602 97.0953 42.0602 97.0693V93.7705C42.0602 93.7444 42.0708 93.7194 42.0896 93.701C42.1084 93.6826 42.1339 93.6722 42.1606 93.6722C42.1872 93.6722 42.2127 93.6826 42.2315 93.701C42.2504 93.7194 42.2609 93.7444 42.2609 93.7705V97.0693C42.2609 97.0953 42.2504 97.1203 42.2315 97.1387C42.2127 97.1571 42.1872 97.1675 42.1606 97.1675Z" fill="white"/>
<path d="M41.8692 94.5253H41.8321C41.8201 94.5208 41.8091 94.5139 41.7999 94.5052C41.7906 94.4964 41.7833 94.4859 41.7783 94.4743C41.7734 94.4627 41.7709 94.4503 41.771 94.4377C41.7711 94.4251 41.7738 94.4127 41.779 94.4012L42.1346 93.5998L42.5274 94.0445C42.5369 94.0536 42.5444 94.0645 42.5495 94.0764C42.5547 94.0884 42.5573 94.1013 42.5573 94.1143C42.5573 94.1272 42.5547 94.1401 42.5495 94.1521C42.5444 94.1641 42.5369 94.1749 42.5274 94.1841C42.5185 94.1931 42.5078 94.2004 42.4959 94.2053C42.4841 94.2102 42.4713 94.2128 42.4584 94.2128C42.4455 94.2128 42.4328 94.2102 42.4209 94.2053C42.409 94.2004 42.3983 94.1931 42.3894 94.1841L42.1983 93.9721L41.9701 94.4891C41.9589 94.5043 41.9434 94.5159 41.9254 94.5223C41.9074 94.5288 41.8878 94.5298 41.8692 94.5253Z" fill="white"/>
<path d="M31.4125 105.166L12.007 94.2565V79.7015L31.4125 90.6165V105.166Z" fill="#E0E0E0"/>
<path d="M20.9772 88.1915L22.4368 89.0136V85.5701L20.9772 84.748V88.1915Z" fill="#F5F5F5"/>
<path d="M22.4368 85.5701L41.8424 74.6603L40.3827 73.8331L20.9772 84.748L22.4368 85.5701Z" fill="white"/>
<path d="M15.0802 88.7085L19.7087 91.2937C19.9765 91.4639 20.1995 91.6929 20.3599 91.9623C20.5203 92.2317 20.6136 92.534 20.6323 92.8449V95.6318C20.6323 96.2005 20.2183 96.4332 19.7087 96.1488L15.0802 93.5636C14.8126 93.3938 14.5899 93.1648 14.4303 92.8952C14.2707 92.6257 14.1788 92.3232 14.162 92.0124V89.2307C14.162 88.6516 14.576 88.4448 15.0802 88.7085Z" fill="#F5F5F5"/>
<path d="M14.7247 89.4014L14.8991 89.4997V92.5916L14.7247 92.4934V89.4014Z" fill="#E0E0E0"/>
<path d="M15.4359 89.8047L15.7438 89.9805V93.0673L15.4359 92.8967V89.8047Z" fill="#E0E0E0"/>
<path d="M16.1525 90.208L16.3321 90.3062L16.3268 93.3982L16.1525 93.3V90.208Z" fill="#E0E0E0"/>
<path d="M16.6938 90.5079L17.0495 90.7095L17.0442 93.8015L16.6938 93.5947V90.5079Z" fill="#E0E0E0"/>
<path d="M17.5857 91.0146L17.76 91.1129V94.2048L17.5857 94.1014V91.0146Z" fill="#E0E0E0"/>
<path d="M18.1005 91.299L18.4773 91.5161V94.6029L18.1005 94.3857V91.299Z" fill="#E0E0E0"/>
<path d="M19.0187 91.8212L19.193 91.9194V95.0062L19.0187 94.908V91.8212Z" fill="#E0E0E0"/>
<path d="M19.4274 92.0435L19.5172 92.0952V95.182L19.4274 95.1355V92.0435Z" fill="#E0E0E0"/>
<path d="M18.6949 91.6505L18.7795 91.697V94.789L18.6949 94.7425V91.6505Z" fill="#E0E0E0"/>
<path d="M17.2512 90.8284L17.3357 90.875V93.9669L17.2512 93.9152V90.8284Z" fill="#E0E0E0"/>
<path d="M16.4603 90.3838L16.5501 90.4355V93.5223L16.4603 93.4757V90.3838Z" fill="#E0E0E0"/>
<path d="M15.8925 90.0787L15.9823 90.1304V93.2224L15.8925 93.1707V90.0787Z" fill="#E0E0E0"/>
<path d="M15.1227 89.6237L15.2125 89.6754V92.7622L15.1227 92.7157V89.6237Z" fill="#E0E0E0"/>
<path d="M19.7354 92.2194L19.9097 92.3228V95.4096L19.7354 95.3113V92.2194Z" fill="#E0E0E0"/>
<path d="M46.5028 50.602L31.4126 42.1121L16.317 50.602L31.4126 59.0868L46.5028 50.602Z" fill="#F5F5F5"/>
<path d="M31.4126 88.1914L46.5028 79.7015V50.6019L31.4126 59.0867V88.1914Z" fill="#EBEBEB"/>
<path d="M33.9019 83.3623C33.8352 83.3628 33.7694 83.3468 33.7108 83.3157C33.6278 83.2573 33.5618 83.179 33.519 83.0884C33.4762 82.9978 33.4582 82.898 33.4666 82.7987V81.2475V81.1338H33.5462L34.7883 80.4254V82.1472C34.7852 82.3687 34.7283 82.5863 34.6222 82.7823C34.5161 82.9782 34.3638 83.1469 34.1779 83.2744C34.0954 83.3267 34.0002 83.357 33.9019 83.3623ZM33.663 81.3613V82.7935C33.6546 82.8591 33.6633 82.9257 33.6884 82.9872C33.7134 83.0487 33.754 83.103 33.8063 83.1451C33.8498 83.1644 33.8977 83.1722 33.9453 83.1677C33.9928 83.1631 34.0383 83.1464 34.077 83.1192C34.2355 83.0095 34.3659 82.8657 34.4579 82.6989C34.55 82.5321 34.6013 82.3468 34.6078 82.1575V82.0334H34.1301L34.0399 81.4285L33.663 81.3613ZM34.3 81.837H34.6078V80.777L33.87 81.201L34.2363 81.263L34.3 81.837Z" fill="white"/>
<path d="M34.1245 84.5929C34.1116 84.5929 34.0988 84.5903 34.0869 84.5853C34.075 84.5803 34.0643 84.573 34.0554 84.5638C34.0465 84.5546 34.0396 84.5438 34.0351 84.5319C34.0307 84.52 34.0287 84.5073 34.0294 84.4947V83.202C34.0287 83.1894 34.0307 83.1767 34.0351 83.1648C34.0396 83.1529 34.0465 83.1421 34.0554 83.1329C34.0643 83.1237 34.075 83.1163 34.0869 83.1113C34.0988 83.1063 34.1116 83.1038 34.1245 83.1038C34.1379 83.103 34.1513 83.1051 34.1638 83.1097C34.1764 83.1144 34.1877 83.1216 34.1972 83.1309C34.2067 83.1402 34.2141 83.1513 34.2188 83.1636C34.2236 83.1758 34.2257 83.1889 34.2249 83.202V84.4947C34.2257 84.5078 34.2236 84.5209 34.2188 84.5331C34.2141 84.5454 34.2067 84.5565 34.1972 84.5658C34.1877 84.5751 34.1764 84.5823 34.1638 84.5869C34.1513 84.5916 34.1379 84.5936 34.1245 84.5929Z" fill="white"/>
<path d="M33.5463 84.9185C33.5251 84.9172 33.5048 84.9094 33.4884 84.8962C33.472 84.883 33.4603 84.865 33.455 84.8449C33.4497 84.8248 33.451 84.8036 33.4588 84.7843C33.4667 84.7651 33.4806 84.7487 33.4986 84.7376L34.6557 84.0861C34.6789 84.073 34.7065 84.0695 34.7324 84.0763C34.7582 84.0831 34.7803 84.0996 34.7937 84.1223C34.807 84.1449 34.8106 84.1718 34.8037 84.197C34.7967 84.2222 34.7797 84.2437 34.7565 84.2567L33.5994 84.903C33.5838 84.9135 33.5652 84.9189 33.5463 84.9185Z" fill="white"/>
<path d="M37.6652 82.6901C37.6275 82.6902 37.5906 82.6794 37.5591 82.6591C37.5185 82.6352 37.4856 82.6008 37.4641 82.5597C37.4425 82.5186 37.4331 82.4724 37.437 82.4264V82.1627C37.437 82.1367 37.4476 82.1117 37.4665 82.0932C37.4855 82.0748 37.5111 82.0645 37.5379 82.0645C37.5646 82.0645 37.5903 82.0748 37.6092 82.0932C37.6281 82.1117 37.6387 82.1367 37.6387 82.1627V82.4264C37.6314 82.4482 37.6314 82.4718 37.6387 82.4936C37.6613 82.4998 37.6851 82.4998 37.7077 82.4936C37.7683 82.4383 37.8158 82.3708 37.847 82.2958C37.8781 82.2208 37.8922 82.1401 37.8882 82.0593V80.3375C37.8882 80.3115 37.8988 80.2865 37.9177 80.2681C37.9366 80.2496 37.9623 80.2393 37.989 80.2393C38.0025 80.2385 38.0159 80.2406 38.0285 80.2452C38.0411 80.2499 38.0525 80.2571 38.0621 80.2664C38.0716 80.2757 38.079 80.2868 38.0838 80.2991C38.0886 80.3113 38.0906 80.3244 38.0899 80.3375V82.0593C38.0942 82.1745 38.0711 82.289 38.0223 82.394C37.9735 82.499 37.9003 82.5915 37.8086 82.6643C37.7636 82.6839 37.7145 82.6928 37.6652 82.6901Z" fill="white"/>
<path d="M36.6196 81.2062V81.0407C36.6435 80.6099 36.7713 80.1907 36.9927 79.817C37.214 79.4433 37.5226 79.1256 37.8935 78.8898C38.0265 78.7825 38.1901 78.7176 38.3622 78.7037C38.5343 78.6899 38.7066 78.7278 38.8559 78.8123C39.0052 78.8969 39.1243 79.024 39.1971 79.1765C39.2698 79.3291 39.2928 79.4997 39.2629 79.6654V79.7171L36.6196 81.2062ZM38.488 78.9105C38.3115 78.9192 38.14 78.9708 37.9891 79.0604C37.6748 79.2635 37.4086 79.5295 37.2082 79.8406C37.0077 80.1518 36.8777 80.501 36.8266 80.8649L39.0612 79.6085C39.0708 79.4869 39.048 79.3649 38.995 79.2544C38.942 79.1439 38.8606 79.0486 38.7587 78.9777C38.6789 78.9231 38.5853 78.8909 38.488 78.8846V78.9105Z" fill="white"/>
<path d="M41.2423 80.6892C41.2157 80.6892 41.1901 80.6788 41.1713 80.6604C41.1525 80.642 41.1419 80.617 41.1419 80.5909V77.2921C41.1385 77.2777 41.1384 77.2627 41.1417 77.2483C41.145 77.2338 41.1516 77.2203 41.161 77.2087C41.1704 77.1971 41.1824 77.1877 41.196 77.1813C41.2096 77.1749 41.2245 77.1715 41.2397 77.1715C41.2548 77.1715 41.2697 77.1749 41.2833 77.1813C41.297 77.1877 41.3089 77.1971 41.3183 77.2087C41.3277 77.2203 41.3343 77.2338 41.3376 77.2483C41.3409 77.2627 41.3408 77.2777 41.3374 77.2921V80.5909C41.3374 80.6161 41.3276 80.6403 41.3099 80.6586C41.2922 80.6769 41.268 80.6878 41.2423 80.6892Z" fill="white"/>
<path d="M40.9773 78.0573H40.9349C40.9226 78.0523 40.9116 78.0449 40.9024 78.0356C40.8933 78.0262 40.8862 78.0151 40.8817 78.0029C40.8773 77.9908 40.8754 77.9778 40.8763 77.9649C40.8773 77.952 40.8809 77.9395 40.8871 77.928L41.2374 77.1318L41.6355 77.5764C41.653 77.5946 41.6628 77.6187 41.6628 77.6437C41.6628 77.6686 41.653 77.6927 41.6355 77.7109C41.6159 77.7283 41.5904 77.738 41.5639 77.738C41.5373 77.738 41.5118 77.7283 41.4922 77.7109L41.3064 77.4989L41.0782 78.0159C41.0677 78.0321 41.0525 78.0447 41.0344 78.0521C41.0164 78.0595 40.9965 78.0613 40.9773 78.0573Z" fill="white"/>
<path d="M42.1606 80.1721C42.1344 80.1708 42.1096 80.1601 42.091 80.1419C42.0724 80.1238 42.0615 80.0995 42.0602 80.0738V76.7751C42.0602 76.749 42.0708 76.724 42.0896 76.7056C42.1084 76.6872 42.1339 76.6768 42.1606 76.6768C42.1872 76.6768 42.2127 76.6872 42.2315 76.7056C42.2504 76.724 42.2609 76.749 42.2609 76.7751V80.0738C42.2597 80.0995 42.2487 80.1238 42.2301 80.1419C42.2116 80.1601 42.1868 80.1708 42.1606 80.1721Z" fill="white"/>
<path d="M41.869 77.5506H41.8318C41.8196 77.5455 41.8085 77.5381 41.7993 77.5289C41.79 77.5196 41.7827 77.5087 41.7777 77.4967C41.7728 77.4847 41.7703 77.4718 41.7705 77.4589C41.7707 77.446 41.7735 77.4332 41.7787 77.4213L42.1344 76.6251L42.5272 77.0697C42.5366 77.0789 42.5441 77.0897 42.5493 77.1017C42.5544 77.1137 42.557 77.1265 42.557 77.1395C42.557 77.1525 42.5544 77.1654 42.5493 77.1773C42.5441 77.1893 42.5366 77.2002 42.5272 77.2093C42.5079 77.2254 42.4835 77.2342 42.4582 77.2342C42.4328 77.2342 42.4084 77.2254 42.3891 77.2093L42.1981 76.9973L41.9698 77.5144C41.9582 77.5291 41.9426 77.5403 41.9248 77.5467C41.9069 77.5531 41.8876 77.5544 41.869 77.5506Z" fill="white"/>
<path d="M31.4126 88.1914L16.317 79.7015V50.6019L31.4126 59.0867V88.1914Z" fill="#E0E0E0"/>
<path d="M23.4774 58.0682L24.9424 58.8903V55.4519L23.4774 54.6246V58.0682Z" fill="#F5F5F5"/>
<path d="M24.9424 55.4519L40.0326 46.9619L38.573 46.1398L23.4774 54.6246L24.9424 55.4519Z" fill="white"/>
<path d="M19.3904 74.1536L24.0188 76.7388C24.2868 76.9084 24.5097 77.1373 24.6693 77.4069C24.8289 77.6765 24.9207 77.9792 24.9371 78.29V81.0717C24.9371 81.6405 24.5284 81.8732 24.0188 81.5888L19.3904 79.0035C19.1217 78.8343 18.898 78.6055 18.7375 78.3359C18.5769 78.0663 18.4842 77.7636 18.4668 77.4524V74.6706C18.4721 74.1019 18.8808 73.8692 19.3904 74.1536Z" fill="#F5F5F5"/>
<path d="M19.0293 74.8516L19.2036 74.9499V78.0418L19.0293 77.9384V74.8516Z" fill="#E0E0E0"/>
<path d="M19.7458 75.2549L20.0484 75.4255V78.5175L19.7458 78.3417V75.2549Z" fill="#E0E0E0"/>
<path d="M20.4624 75.653L20.6367 75.7564V78.8432L20.4624 78.745V75.653Z" fill="#E0E0E0"/>
<path d="M21.0038 75.9529L21.3541 76.1598V79.2466L21.0038 79.0449V75.9529Z" fill="#E0E0E0"/>
<path d="M21.8956 76.4596L22.07 76.5578V79.6498L21.8956 79.5515V76.4596Z" fill="#E0E0E0"/>
<path d="M22.4105 76.7441L22.7874 76.9612V80.0532L22.4105 79.836V76.7441Z" fill="#E0E0E0"/>
<path d="M23.3286 77.2663L23.503 77.3645V80.4565L23.3286 80.3531V77.2663Z" fill="#E0E0E0"/>
<path d="M23.7373 77.4938L23.8218 77.5403V80.6323L23.7373 80.5806V77.4938Z" fill="#E0E0E0"/>
<path d="M22.9998 77.0956L23.0896 77.1473V80.2393L22.9998 80.1876V77.0956Z" fill="#E0E0E0"/>
<path d="M21.5559 76.2735L21.6457 76.3252V79.412L21.5559 79.3655V76.2735Z" fill="#E0E0E0"/>
<path d="M20.765 75.834L20.8548 75.8806V78.9725L20.765 78.9208V75.834Z" fill="#E0E0E0"/>
<path d="M20.2024 75.5289L20.2869 75.5755V78.6674L20.2024 78.6157V75.5289Z" fill="#E0E0E0"/>
<path d="M19.4327 75.074L19.5173 75.1205V78.2125L19.4327 78.1608V75.074Z" fill="#E0E0E0"/>
<path d="M24.04 77.6695L24.2197 77.7677V80.8545L24.04 80.7563V77.6695Z" fill="#E0E0E0"/>
<path d="M16.4605 130.714L74.3904 163.288C75.1027 163.64 75.8901 163.823 76.6887 163.823C77.4874 163.823 78.2748 163.64 78.987 163.288L205.914 91.935C207.182 91.2214 207.182 90.0632 205.914 89.3497L147.984 56.7756C147.272 56.4211 146.485 56.2363 145.686 56.2363C144.886 56.2363 144.099 56.4211 143.387 56.7756L16.4605 128.128C15.1919 128.842 15.1919 130 16.4605 130.714Z" fill="#455A64"/>
<path d="M47.7714 145.837C48.7591 146.323 49.8499 146.576 50.9562 146.576C52.0624 146.576 53.1532 146.323 54.1409 145.837C55.9084 144.845 55.9084 143.252 54.1409 142.244C53.1539 141.756 52.0628 141.502 50.9562 141.502C49.8495 141.502 48.7584 141.756 47.7714 142.244C46.0039 143.252 46.0039 144.855 47.7714 145.837Z" fill="#263238"/>
<path d="M75.4784 163.288L17.5484 130.714C16.4125 130.072 16.2958 129.08 17.1928 128.366C16.6262 128.803 16.1604 129.351 15.8257 129.974C15.491 130.598 15.2948 131.283 15.2501 131.986V134.09C15.2937 134.867 15.5245 135.623 15.9238 136.296C16.3231 136.97 16.8796 137.543 17.5484 137.968L75.4784 170.542C76.1867 170.902 76.9779 171.08 77.7767 171.059V163.825C76.976 163.84 76.1848 163.655 75.4784 163.288Z" fill="#37474F"/>
<path d="M205.908 99.184C206.579 98.76 207.137 98.1877 207.537 97.5139C207.937 96.84 208.169 96.0835 208.212 95.3061V93.2017C208.169 92.4984 207.973 91.8121 207.637 91.1881C207.301 90.5642 206.833 90.0168 206.264 89.5823C207.166 90.2959 207.05 91.2886 205.914 91.9246L78.9869 163.288C78.2781 163.647 77.4873 163.825 76.6886 163.805V171.08C77.4873 171.1 78.2781 170.922 78.9869 170.563L205.908 99.184Z" fill="#263238"/>
<path d="M83.9338 156.54L28.4879 125.342C27.7236 124.912 27.7236 124.214 28.4879 123.79L135.664 63.4972C136.092 63.2856 136.565 63.1753 137.044 63.1753C137.524 63.1753 137.997 63.2856 138.424 63.4972L193.891 94.6908C194.65 95.12 194.65 95.8128 193.891 96.242L86.6727 156.54C86.2478 156.749 85.7788 156.857 85.3032 156.857C84.8276 156.857 84.3587 156.749 83.9338 156.54Z" fill="white"/>
<path d="M61.5931 139.121L68.0634 135.481L65.9084 134.271L59.4381 137.906L61.5931 139.121Z" fill="#FF725E"/>
<path d="M139.215 95.4664L145.686 91.8263L143.525 90.6165L137.06 94.2565L139.215 95.4664Z" fill="#FF725E"/>
<path d="M152.15 88.1915L158.621 84.5514L156.466 83.3416L149.995 86.9764L152.15 88.1915Z" fill="#FF725E"/>
<path d="M172.915 75.4462C173.166 75.5686 173.443 75.6323 173.724 75.6323C174.005 75.6323 174.282 75.5686 174.534 75.4462C174.631 75.4138 174.716 75.3525 174.776 75.2709C174.835 75.1893 174.868 75.0915 174.868 74.9912C174.868 74.8909 174.835 74.7931 174.776 74.7115C174.716 74.6299 174.631 74.5686 174.534 74.5362C174.283 74.4114 174.006 74.3463 173.724 74.3463C173.443 74.3463 173.165 74.4114 172.915 74.5362C172.817 74.5686 172.733 74.6299 172.673 74.7115C172.613 74.7931 172.581 74.8909 172.581 74.9912C172.581 75.0915 172.613 75.1893 172.673 75.2709C172.733 75.3525 172.817 75.4138 172.915 75.4462Z" fill="#263238"/>
<path d="M175.5 82.5866C176.001 82.8338 176.554 82.9625 177.116 82.9625C177.678 82.9625 178.231 82.8338 178.732 82.5866C179.624 82.0696 179.624 81.2681 178.732 80.7666C178.231 80.5195 177.678 80.3907 177.116 80.3907C176.554 80.3907 176.001 80.5195 175.5 80.7666C174.608 81.2681 174.608 82.0851 175.5 82.5866Z" fill="#263238"/>
<path d="M173.217 79.4224C173.812 79.0863 173.78 78.5279 173.148 78.1711L162.533 72.1888C162.191 72.0104 161.811 71.9136 161.423 71.9064C161.035 71.8992 160.652 71.9819 160.303 72.1475C159.709 72.4836 159.741 73.042 160.372 73.3987L171.02 79.381C171.358 79.554 171.732 79.6478 172.114 79.6549C172.495 79.6621 172.873 79.5825 173.217 79.4224Z" fill="#263238"/>
<path d="M155.096 55.1624L155.457 54.9556C155.208 55.8379 155.086 56.7498 155.096 57.6649V58.9265C155.096 63.4559 160.675 75.0274 162.729 79.1225C162.941 79.5516 160.123 82.4729 160.123 82.4729L163.472 80.5909C163.472 80.5909 171.842 73.8692 171.842 68.3472V67.0855C171.842 61.5376 168.095 54.9349 163.472 52.3341C161.137 51.026 159.029 50.9795 157.511 51.9722L154.327 53.7508L155.096 55.1624ZM159.284 59.397C159.284 56.8118 161.158 55.7415 163.472 57.0444C163.281 58.7145 166.413 63.916 167.655 64.1073C167.655 66.6926 165.781 67.7629 163.472 66.4599C162.257 65.6843 161.246 64.6407 160.522 63.4135C159.798 62.1864 159.381 60.8104 159.305 59.397H159.284Z" fill="#FF725E"/>
<path d="M151.651 60.9481C151.747 66.4909 160.388 82.4729 160.388 82.4729C160.388 82.4729 168.647 75.6375 168.557 70.0947V68.8331C168.461 63.2904 164.603 56.7445 159.932 54.2213C155.261 51.6981 151.556 54.1386 151.651 59.6865V60.9481ZM155.845 61.3514C155.802 58.7662 157.66 57.6648 159.99 58.9265C161.222 59.6807 162.253 60.7073 163.001 61.9228C163.749 63.1383 164.192 64.5085 164.295 65.9221C164.343 68.5074 162.485 69.6087 160.149 68.3471C158.919 67.5913 157.889 66.5644 157.141 65.3492C156.393 64.134 155.949 62.7645 155.845 61.3514Z" fill="#FF725E"/>
<path opacity="0.1" d="M151.651 60.9481C151.747 66.4909 160.388 82.4729 160.388 82.4729C160.388 82.4729 168.647 75.6375 168.557 70.0947V68.8331C168.461 63.2904 164.603 56.7445 159.932 54.2213C155.261 51.6981 151.556 54.1386 151.651 59.6865V60.9481ZM155.845 61.3514C155.802 58.7662 157.66 57.6648 159.99 58.9265C161.222 59.6807 162.253 60.7073 163.001 61.9228C163.749 63.1383 164.192 64.5085 164.295 65.9221C164.343 68.5074 162.485 69.6087 160.149 68.3471C158.919 67.5913 157.889 66.5644 157.141 65.3492C156.393 64.134 155.949 62.7645 155.845 61.3514Z" fill="black"/>
<path d="M70.7014 134.871C76.0676 137.88 88.6472 135.693 98.8012 129.98L126.694 114.297C136.848 108.584 140.723 101.521 135.346 98.517C129.969 95.513 117.379 97.7104 107.214 103.419L79.3744 119.08C69.2258 124.788 65.3404 131.877 70.7014 134.871Z" fill="#F0F0F0"/>
<path d="M151.912 3.40051H151.938L156.529 0.815264H156.567C159.459 -0.611794 163.323 -0.218833 167.485 2.41812C175.85 7.66101 182.235 19.76 181.752 29.434C181.508 34.258 179.629 37.5672 176.726 39.0252H176.699L172.103 41.6105H172.071C169.178 43.0427 165.309 42.6446 161.142 40.0128C152.782 34.7648 146.397 22.671 146.88 12.997C147.134 8.16771 149.04 4.85859 151.912 3.40051Z" fill="#37474F"/>
<path d="M172.336 41.4761L176.715 38.9943H176.747C179.624 37.531 181.524 34.2219 181.768 29.403C181.981 25.0908 180.829 20.2977 178.748 15.8459L174.152 18.4312C176.238 22.883 177.389 27.676 177.172 31.9934C176.944 36.6986 175.118 39.9715 172.336 41.4761Z" fill="#263238"/>
<path d="M161.163 40.0076C152.803 34.7596 146.418 22.6658 146.901 12.9918C147.384 3.31779 154.565 -0.275709 162.909 4.96718C171.253 10.2101 177.66 22.309 177.177 31.983C176.694 41.657 169.523 45.2505 161.163 40.0076Z" fill="#455A64"/>
<path d="M168.17 39.3251C173.101 39.5578 173.902 34.1546 174.008 31.8279C174.433 23.2966 168.562 12.18 161.19 7.55239C159.619 6.48048 157.791 5.82154 155.882 5.6393C150.956 5.40663 150.155 10.8098 150.043 13.1365C149.619 21.6678 155.484 32.7844 162.862 37.4379C164.433 38.5098 166.261 39.1687 168.17 39.3509V39.3251Z" fill="#FAFAFA"/>
<path d="M161.073 24.0877C161.131 24.0878 161.189 24.0773 161.243 24.0566C161.354 24.0216 161.45 23.9519 161.516 23.8585C161.582 23.765 161.615 23.653 161.609 23.5396V11.2183C161.609 11.0812 161.553 10.9496 161.454 10.8527C161.354 10.7557 161.219 10.7012 161.078 10.7012C160.937 10.7012 160.802 10.7557 160.703 10.8527C160.603 10.9496 160.547 11.0812 160.547 11.2183V22.0401L154.64 14.6463C154.553 14.5366 154.424 14.4652 154.283 14.4477C154.141 14.4303 153.999 14.4682 153.886 14.5533C153.773 14.6383 153.7 14.7634 153.682 14.9011C153.664 15.0388 153.703 15.1778 153.791 15.2875L160.664 23.886C160.713 23.9472 160.774 23.9971 160.845 24.032C160.916 24.0669 160.994 24.0859 161.073 24.0877Z" fill="#37474F"/>
<path d="M164.12 33.2033C164.144 33.208 164.17 33.208 164.194 33.2033C164.25 33.1865 164.298 33.1491 164.327 33.099C164.355 33.0489 164.363 32.9899 164.348 32.9344L161.37 23.1673C161.353 23.1118 161.315 23.0651 161.262 23.0374C161.21 23.0098 161.149 23.0035 161.092 23.02C161.035 23.0364 160.987 23.0743 160.958 23.1252C160.93 23.1761 160.924 23.2359 160.94 23.2914L163.913 33.0585C163.928 33.1004 163.956 33.1367 163.993 33.1625C164.03 33.1884 164.074 33.2026 164.12 33.2033Z" fill="#FF725E"/>
<path d="M161.243 21.094C160.256 20.4787 159.412 20.9026 159.359 22.0402C159.362 22.6606 159.515 23.2715 159.807 23.8232C160.098 24.3749 160.519 24.8517 161.036 25.2148C162.018 25.8353 162.862 25.4113 162.92 24.2738C162.916 23.6529 162.761 23.0416 162.47 22.4893C162.179 21.937 161.758 21.4591 161.243 21.094Z" fill="#FF725E"/>
<path d="M74.5337 131.846L80.9986 128.206L78.8436 126.996L72.3787 130.631L74.5337 131.846Z" fill="#FF725E"/>
<path d="M87.4688 124.571L93.9391 120.931L91.7788 119.721L85.3138 123.356L87.4688 124.571Z" fill="#FF725E"/>
<path d="M84.8096 123.087C84.8096 126.127 82.6228 129.809 79.9211 131.36C78.4827 132.172 77.1875 132.198 76.2958 131.587C75.9363 131.312 75.641 130.966 75.4296 130.571C75.2182 130.176 75.0955 129.742 75.0697 129.297C75.2513 129.214 75.4284 129.123 75.6005 129.023C78.3022 127.508 80.489 123.811 80.489 120.75C80.4916 120.524 80.4774 120.297 80.4466 120.073C80.8515 119.864 81.2965 119.74 81.7534 119.708C82.2103 119.676 82.6691 119.737 83.1005 119.887C84.1621 120.321 84.8096 121.443 84.8096 123.087Z" fill="#263238"/>
<path d="M85.2502 116.841L85.1599 116.789C83.8011 116.086 81.9752 116.216 79.9211 117.363C75.7544 119.706 72.3733 125.403 72.3733 130.093C72.3733 132.451 73.2279 134.1 74.6079 134.865C75.9879 135.631 77.851 135.501 79.9158 134.348C84.0824 132.006 87.4582 126.303 87.4582 121.614C87.4635 119.256 86.6249 117.606 85.2502 116.841ZM79.9423 131.35C78.4986 132.161 77.2034 132.187 76.3117 131.572C75.5262 131.055 75.0485 130.021 75.0485 128.599C75.0485 125.564 77.2406 121.877 79.9423 120.326C81.1737 119.633 82.2937 119.514 83.127 119.871C84.1567 120.3 84.8043 121.422 84.8043 123.077C84.8096 126.138 82.6228 129.835 79.9211 131.36L79.9423 131.35Z" fill="#37474F"/>
<path d="M83.3765 120.011L83.3181 119.98C82.437 119.52 81.2427 119.607 79.9211 120.347C77.2194 121.867 75.0272 125.564 75.0272 128.62C75.0272 130.171 75.558 131.205 76.4763 131.722C77.3945 132.239 78.5994 132.136 79.9211 131.381C82.6228 129.861 84.8096 126.164 84.8096 123.108C84.8096 121.577 84.2629 120.502 83.3765 120.011ZM79.9211 130.274C78.764 130.926 77.7236 130.946 77.0017 130.45C76.3754 130.021 75.988 129.199 75.988 128.061C76.0623 126.732 76.4572 125.439 77.1405 124.286C77.8239 123.134 78.7765 122.154 79.9211 121.427C80.2929 121.175 80.7202 121.01 81.1689 120.946C81.6177 120.882 82.0755 120.921 82.506 121.06C83.334 121.407 83.8542 122.306 83.8542 123.646C83.7803 124.974 83.3855 126.267 82.7021 127.418C82.0187 128.57 81.0658 129.549 79.9211 130.274Z" fill="#FF725E"/>
<path d="M100.404 117.291L106.874 113.656L104.719 112.441L98.2491 116.081L100.404 117.291Z" fill="#FF725E"/>
<path d="M113.345 110.016L119.81 106.381L117.655 105.166L111.184 108.806L113.345 110.016Z" fill="#FF725E"/>
<path d="M126.28 102.741L132.745 99.1064L130.59 97.8913L124.12 101.531L126.28 102.741Z" fill="#FF725E"/>
<path d="M94.0876 68.9108C94.1552 68.8228 94.2499 68.7581 94.3578 68.7261C94.4658 68.694 94.5814 68.6963 94.6878 68.7326C94.7943 68.7689 94.8862 68.8374 94.95 68.928C95.0139 69.0186 95.0465 69.1266 95.043 69.2365C95.0845 69.5308 95.0537 69.8305 94.9532 70.111C94.8526 70.3914 94.6851 70.6446 94.4645 70.8497C94.0399 71.2065 93.6099 71.0617 93.5091 70.5239C93.468 70.2297 93.499 69.9301 93.5996 69.6497C93.7001 69.3693 93.8674 69.1161 94.0876 68.9108Z" fill="#FF725E"/>
<path d="M99.0664 71.1961L94.7405 68.7607L93.7904 70.9892L98.1322 73.4297L99.0664 71.1961Z" fill="#FF725E"/>
<path d="M98.403 71.3356C98.8276 70.984 99.2523 71.1288 99.3584 71.6665C99.3975 71.9604 99.365 72.2591 99.2636 72.5385C99.1622 72.8178 98.9946 73.07 98.7746 73.2746C98.3499 73.6313 97.92 73.4866 97.8191 72.9488C97.7804 72.6542 97.8131 72.3548 97.9145 72.0747C98.0159 71.7946 98.1832 71.5415 98.403 71.3356Z" fill="#FF725E"/>
<path d="M131.652 91.7281C131.652 91.8315 131.652 91.9245 131.652 92.0279C131.652 92.2348 131.652 92.4467 131.652 92.6587C130.792 92.302 129.672 92.4209 128.44 93.1137C125.739 94.6339 123.546 98.3308 123.546 101.387C123.546 102.803 124.024 103.827 124.81 104.36C124.589 104.512 124.361 104.654 124.125 104.784L123.876 104.908L123.127 107.653L118.796 105.301C117.426 104.53 116.583 102.886 116.583 100.539C116.583 95.8489 119.958 90.151 124.125 87.8036C126.184 86.6454 128.047 86.5265 129.433 87.2866L133.679 89.603L133.769 89.6547L131.652 91.7281Z" fill="#455A64"/>
<path d="M133.764 89.6082L133.674 89.5565C132.315 88.8533 130.489 88.9825 128.435 90.1304C124.268 92.4726 120.887 98.1705 120.887 102.86C120.887 105.218 121.742 106.867 123.122 107.633C124.502 108.398 126.365 108.268 128.43 107.115C132.596 104.773 135.972 99.0702 135.972 94.3805C135.988 92.0228 135.133 90.3734 133.764 89.6082ZM128.456 104.117C127.012 104.928 125.717 104.954 124.826 104.339C124.04 103.822 123.562 102.788 123.562 101.366C123.562 98.3308 125.754 94.6442 128.456 93.0931C129.688 92.4002 130.807 92.2813 131.667 92.6381C132.697 93.0672 133.345 94.1892 133.345 95.8438C133.334 98.9047 131.137 102.602 128.435 104.117H128.456Z" fill="#37474F"/>
<path d="M133.334 95.8644C133.334 98.9047 131.147 102.586 128.446 104.137C127.007 104.949 125.712 104.975 124.82 104.365C124.461 104.09 124.165 103.743 123.954 103.348C123.743 102.953 123.62 102.519 123.594 102.074C123.776 101.992 123.953 101.9 124.125 101.8C126.827 100.285 129.013 96.5883 129.013 93.5274C129.016 93.3009 129.002 93.0745 128.971 92.85C129.376 92.6413 129.821 92.517 130.278 92.485C130.735 92.4529 131.193 92.5139 131.625 92.6639C132.676 93.0982 133.334 94.2099 133.334 95.8644Z" fill="#263238"/>
<path d="M131.89 92.7777L131.832 92.7415C130.951 92.2865 129.751 92.3692 128.435 93.1137C125.733 94.6339 123.541 98.3256 123.541 101.387C123.541 102.938 124.072 103.972 124.99 104.489C125.908 105.006 127.113 104.897 128.435 104.142C131.137 102.627 133.323 98.9306 133.323 95.8696C133.334 94.3443 132.803 93.274 131.89 92.7777ZM128.435 103.036C127.272 103.693 126.232 103.713 125.516 103.217C124.884 102.788 124.502 101.966 124.502 100.828C124.576 99.4991 124.971 98.2059 125.654 97.0533C126.338 95.9007 127.29 94.9213 128.435 94.1944C129.422 93.636 130.324 93.5377 131.014 93.8273C131.843 94.1737 132.363 95.0734 132.363 96.4125C132.289 97.7397 131.895 99.0312 131.212 100.182C130.53 101.333 129.578 102.311 128.435 103.036Z" fill="#FF725E"/>
<path d="M124.12 97.4104L136.328 90.544C137.745 89.7426 133.143 85.0633 129.719 84.7479C127.835 84.5261 125.923 84.7024 124.114 85.265C124.114 85.265 126.72 88.5172 126.275 90.3631C125.829 92.2089 124.12 97.4104 124.12 97.4104Z" fill="#FF725E"/>
<path d="M106.874 78.0056C106.874 78.0056 124.571 86.7024 125.335 87.2246C126.099 87.7468 125.335 93.8118 124.12 97.4105C122.904 101.009 121.036 106.542 120.287 108.093C119.539 109.644 118.562 110.223 116.768 111.231L104.029 118.403L86.7842 120.45L79.937 116.831L81.7205 105.916C81.7205 105.916 100.048 96.4178 102.559 95.0062C105.07 93.5947 112.495 86.9713 106.874 78.0056Z" fill="#FF725E"/>
<path opacity="0.2" d="M106.874 78.0056C106.874 78.0056 124.571 86.7024 125.335 87.2246C126.099 87.7468 125.335 93.8118 124.12 97.4105C122.904 101.009 121.036 106.542 120.287 108.093C119.539 109.644 118.562 110.223 116.768 111.231L104.029 118.403L86.7842 120.45L79.937 116.831L81.7205 105.916C81.7205 105.916 100.048 96.4178 102.559 95.0062C105.07 93.5947 112.495 86.9713 106.874 78.0056Z" fill="black"/>
<path d="M125.675 95.3371C127.267 91.1696 128.456 87.7157 128.254 85.3838C128.01 82.6176 126.949 80.3581 122.267 79.2206C117.586 78.0831 111.041 78.1038 111.041 78.1038L109.051 79.2258C109.051 79.2258 122.511 86.8264 124.04 87.6537C124.974 88.1707 125.972 90.4509 124.141 97.4156L124.454 97.5914C124.608 97.6845 125.165 96.6762 125.675 95.3371Z" fill="#FF725E"/>
<path opacity="0.3" d="M125.675 95.3371C127.267 91.1696 128.456 87.7157 128.254 85.3838C128.01 82.6176 126.949 80.3581 122.267 79.2206C117.586 78.0831 111.041 78.1038 111.041 78.1038L109.051 79.2258C109.051 79.2258 122.511 86.8264 124.04 87.6537C124.974 88.1707 125.972 90.4509 124.141 97.4156L124.454 97.5914C124.608 97.6845 125.165 96.6762 125.675 95.3371Z" fill="white"/>
<path d="M115.478 82.8555L117.655 81.6456C117.655 81.6456 117.527 74.2984 114.353 72.5145C111.179 70.7307 100.404 71.9458 100.404 71.9458L98.2491 73.1557L115.478 82.8555Z" fill="#FF725E"/>
<path d="M108.419 74.1949C107.384 74.7792 107.384 75.7202 108.419 76.2993C108.999 76.5871 109.641 76.7372 110.293 76.7372C110.944 76.7372 111.586 76.5871 112.166 76.2993C113.196 75.7202 113.196 74.774 112.166 74.1949C111.585 73.9094 110.943 73.7607 110.293 73.7607C109.642 73.7607 109 73.9094 108.419 74.1949Z" fill="#F0F0F0"/>
<path d="M111.731 77.7057C111.004 78.1193 111.004 78.7863 111.731 79.1948C112.142 79.3995 112.597 79.5062 113.058 79.5062C113.519 79.5062 113.974 79.3995 114.385 79.1948C115.117 78.7863 115.117 78.1193 114.385 77.7057C113.973 77.5034 113.519 77.3981 113.058 77.3981C112.597 77.3981 112.143 77.5034 111.731 77.7057Z" fill="#F0F0F0"/>
<path d="M103.392 73.259C102.66 73.6675 102.66 74.3345 103.392 74.7481C103.804 74.9504 104.258 75.0557 104.719 75.0557C105.18 75.0557 105.635 74.9504 106.046 74.7481C106.779 74.3345 106.779 73.6675 106.046 73.259C105.636 73.0544 105.181 72.9476 104.719 72.9476C104.258 72.9476 103.803 73.0544 103.392 73.259Z" fill="#F0F0F0"/>
<path d="M115.818 80.7253C116.243 80.3685 116.667 80.5133 116.774 81.051C116.813 81.3457 116.78 81.6452 116.679 81.9254C116.577 82.2056 116.41 82.4587 116.19 82.6643C116.122 82.7522 116.027 82.8169 115.919 82.849C115.812 82.881 115.696 82.8787 115.589 82.8424C115.483 82.8061 115.391 82.7376 115.327 82.647C115.263 82.5564 115.231 82.4484 115.234 82.3385C115.193 82.0438 115.225 81.7438 115.327 81.4633C115.428 81.1829 115.597 80.9299 115.818 80.7253Z" fill="#FF725E"/>
<path d="M120.77 83.0107L116.439 80.5754L115.494 82.8039L119.831 85.2392L120.77 83.0107Z" fill="#FF725E"/>
<path d="M120.101 83.1502C120.169 83.0622 120.264 82.9975 120.372 82.9655C120.48 82.9335 120.595 82.9358 120.702 82.9721C120.808 83.0084 120.9 83.0768 120.964 83.1674C121.028 83.258 121.06 83.3661 121.057 83.4759C121.097 83.7706 121.065 84.0705 120.964 84.3509C120.862 84.6313 120.694 84.8843 120.473 85.0891C120.048 85.4459 119.624 85.296 119.518 84.7634C119.478 84.4687 119.51 84.1691 119.612 83.8889C119.713 83.6086 119.881 83.3555 120.101 83.1502Z" fill="#FF725E"/>
<path d="M120.101 83.1502C120.169 83.0622 120.264 82.9975 120.372 82.9655C120.48 82.9335 120.595 82.9358 120.702 82.9721C120.808 83.0084 120.9 83.0768 120.964 83.1674C121.028 83.258 121.06 83.3661 121.057 83.4759C121.097 83.7706 121.065 84.0705 120.964 84.3509C120.862 84.6313 120.694 84.8843 120.473 85.0891C120.048 85.4459 119.624 85.296 119.518 84.7634C119.478 84.4687 119.51 84.1691 119.612 83.8889C119.713 83.6086 119.881 83.3555 120.101 83.1502Z" fill="black"/>
<path d="M83.1376 118.951C83.1376 119.054 83.1376 119.147 83.1376 119.251C83.1376 119.457 83.1376 119.669 83.1376 119.881C82.2777 119.525 81.1577 119.644 79.9528 120.336C77.2511 121.857 75.059 125.553 75.059 128.609C75.059 130.026 75.5367 131.05 76.3223 131.582C76.1017 131.735 75.8732 131.877 75.6376 132.006L75.3881 132.13L74.6397 134.876L70.3085 132.523C68.939 131.753 68.0951 130.109 68.0951 127.761C68.0951 123.072 71.4709 117.374 75.6376 115.026C77.697 113.868 79.5601 113.749 80.9454 114.509L85.1917 116.826L85.2819 116.877L83.1376 118.951Z" fill="#455A64"/>
<path d="M70.2183 110.745L66.9858 121.66L73.4561 125.3L76.8054 114.452L70.2183 110.745Z" fill="#FF725E"/>
<path opacity="0.2" d="M70.2183 110.745L66.9858 121.66L73.4561 125.3L76.8054 114.452L70.2183 110.745Z" fill="black"/>
<path d="M70.2183 110.745C70.2183 110.745 73.886 113.78 76.8053 114.452C80.6376 115.357 86.731 115.455 88.8913 115.6C92.1928 115.823 94.6875 115.817 95.8552 115.409C97.368 114.892 101.434 112.591 102.559 111.96C104.714 110.75 105.632 105.988 99.6928 104.685C95.6768 103.875 91.586 103.468 87.4847 103.47L70.2183 110.745Z" fill="#FF725E"/>
<path d="M106.795 109.349C106.61 109.799 106.485 110.27 106.423 110.75C106.252 111.25 106.212 111.783 106.306 112.301C106.711 112.953 107.348 113.437 108.095 113.661C108.634 113.778 109.191 113.785 109.732 113.683C110.274 113.581 110.788 113.371 111.243 113.067C112.341 112.426 113.169 111.65 114.73 111.216C115.845 110.986 116.896 110.522 117.809 109.856C118.674 109.178 119.831 107.307 118.175 106.872C116.519 106.438 112.92 107.969 109.64 108.108L106.795 109.349Z" fill="#37474F"/>
<path d="M106.795 107.353V109.742C106.895 110.011 107.07 110.247 107.299 110.425C107.529 110.603 107.804 110.715 108.095 110.75C108.362 110.788 108.634 110.76 108.886 110.668C109.284 110.52 109.628 110.262 109.877 109.926C110.126 109.589 110.269 109.189 110.287 108.775L110.383 107.353H106.795Z" fill="#FFA8A7"/>
<path d="M111.466 92.5812C111.466 95.5542 110.606 108.408 110.606 108.408C110.606 108.408 109.358 109.959 106.646 108.408L105.733 94.0444L111.466 92.5812Z" fill="#37474F"/>
<path d="M97.2407 105.249L105.733 100.482C106.081 100.304 106.373 100.037 106.576 99.7089C106.779 99.3813 106.887 99.0057 106.887 98.6229C106.887 98.2401 106.779 97.8645 106.576 97.5369C106.373 97.2092 106.081 96.942 105.733 96.7641L99.4063 93.2068C99.0501 93.031 98.6564 92.9394 98.2571 92.9394C97.8578 92.9394 97.4642 93.031 97.108 93.2068L88.6154 97.974C88.2689 98.1531 87.979 98.4208 87.7769 98.7483C87.5747 99.0758 87.4679 99.4507 87.4679 99.8328C87.4679 100.215 87.5747 100.59 87.7769 100.917C87.979 101.245 88.2689 101.512 88.6154 101.692L94.9424 105.249C95.2985 105.425 95.6922 105.516 96.0915 105.516C96.4908 105.516 96.8845 105.425 97.2407 105.249Z" fill="#FF725E"/>
<path d="M97.2407 105.249L105.733 100.482C106.081 100.304 106.373 100.037 106.576 99.7089C106.779 99.3813 106.887 99.0057 106.887 98.6229C106.887 98.2401 106.779 97.8645 106.576 97.5369C106.373 97.2092 106.081 96.942 105.733 96.7641L99.4063 93.2068C99.0501 93.031 98.6564 92.9394 98.2571 92.9394C97.8578 92.9394 97.4642 93.031 97.108 93.2068L88.6154 97.974C88.2689 98.1531 87.979 98.4208 87.7769 98.7483C87.5747 99.0758 87.4679 99.4507 87.4679 99.8328C87.4679 100.215 87.5747 100.59 87.7769 100.917C87.979 101.245 88.2689 101.512 88.6154 101.692L94.9424 105.249C95.2985 105.425 95.6922 105.516 96.0915 105.516C96.4908 105.516 96.8845 105.425 97.2407 105.249Z" fill="white"/>
<path d="M88.6153 99.2666L94.9422 102.824C95.2984 103 95.6921 103.091 96.0914 103.091C96.4907 103.091 96.8844 103 97.2406 102.824L105.733 98.0567C105.872 98.0109 105.992 97.9239 106.077 97.808C106.163 97.6921 106.209 97.553 106.209 97.4104C106.209 97.2678 106.163 97.1288 106.077 97.0128C105.992 96.8969 105.872 96.8099 105.733 96.7641L99.4062 93.2068C99.05 93.031 98.6563 92.9394 98.257 92.9394C97.8577 92.9394 97.464 93.031 97.1079 93.2068L88.6153 97.974C88.4766 98.0198 88.3562 98.1068 88.2709 98.2227C88.1856 98.3387 88.1398 98.4777 88.1398 98.6203C88.1398 98.7629 88.1856 98.902 88.2709 99.0179C88.3562 99.1338 88.4766 99.2208 88.6153 99.2666Z" fill="#FF725E"/>
<path d="M93.7905 67.6232L92.713 71.9509L88.0846 72.225L89.0825 66.2272L93.7905 67.6232Z" fill="#FFA8A7"/>
<path d="M98.3021 64.3658C98.3021 64.3658 98.8329 66.1961 98.6153 66.2996C98.2811 66.3492 97.941 66.3492 97.6068 66.2996L98.3021 64.3658Z" fill="#F28F8F"/>
<path d="M97.4157 58.5232C98.1588 59.3763 98.8382 60.7775 98.3127 64.2107C97.7395 67.9645 97.0282 68.3988 96.455 68.7607C95.7066 69.2364 92.7129 68.9831 91.869 68.3833C90.8552 67.6646 89.2894 65.3844 88.9178 63.1352C88.4826 60.4931 89.3902 57.5614 91.386 57.0599C94.1938 56.3516 96.7841 57.7993 97.4157 58.5232Z" fill="#FFA8A7"/>
<path d="M88.6155 67.4423C89.332 68.1662 90.8023 68.3626 91.7259 68.5281C92.6494 68.6936 95.4891 68.8745 96.3278 66.9046C97.1664 64.9346 96.5932 63.5179 97.6229 63.0422C98.6526 62.5665 99.6823 62.2563 99.953 62.0081C100.224 61.7599 100.229 58.518 97.4637 56.8376C94.6983 55.1572 90.4626 54.7694 87.676 58.1768C85.5634 60.8086 86.4286 65.219 88.6155 67.4423Z" fill="#455A64"/>
<path d="M91.402 68.5539C92.1185 68.616 94.385 68.2695 95.0697 67.3595C95.7544 66.4495 96.0304 64.8208 96.1313 63.9677C96.1405 63.6317 96.267 63.3088 96.4899 63.0522C96.7128 62.7956 97.0188 62.6207 97.3574 62.5561C98.0421 62.3441 99.5548 61.6203 99.5548 61.6203V61.217C100.043 61.1871 100.532 61.1871 101.02 61.217C101.338 61.2739 101.163 61.734 100.356 62.1322C99.5495 62.5303 97.3362 63.3007 96.9965 63.5644C96.6568 63.8281 96.4975 64.9397 96.2268 66.1238C95.9561 67.3078 95.1175 69.0761 91.402 68.5539Z" fill="#37474F"/>
<path d="M97.7713 73.4504L100.425 71.9665C100.68 71.2168 100.271 70.8393 99.5494 70.8858C98.8275 70.9324 99.0505 70.2499 98.6099 70.0586C98.0314 69.8 97.7023 69.9448 97.4422 69.8259C97.1821 69.707 97.0706 69.4071 96.7309 69.3709C95.2129 69.2313 94.1779 71.3409 94.1779 71.3409L97.7713 73.4504Z" fill="#F28F8F"/>
<path d="M79.7565 92.4365C79.7565 92.4365 91.4815 86.7748 93.5251 85.8596C95.5686 84.9444 98.7745 83.6156 100.478 83.6156C101.144 83.6692 101.768 83.9549 102.235 84.4203C102.702 84.8857 102.981 85.4995 103.021 86.1491C103.043 87.1465 102.984 88.1441 102.846 89.1325C99.6242 90.162 96.3322 90.9688 92.9943 91.5471C88.1163 92.3744 79.7565 92.4365 79.7565 92.4365Z" fill="#37474F"/>
<path d="M81.0304 89.1635C81.0304 91.5109 80.8021 93.9514 81.8053 95.668C82.8085 97.3846 88.2438 101.356 93.3605 100.523C96.7045 99.975 106.63 95.5232 106.63 95.5232C106.63 95.5232 111.444 93.8015 111.466 92.5761C111.497 90.7716 111.37 88.2277 107.172 88.3362C103.345 88.4345 92.0548 90.7302 92.0548 90.7302L81.0304 89.1635Z" fill="#455A64"/>
<path d="M84.3054 70.5653C86.1207 68.7194 87.3468 68.5643 88.2173 68.7918C90.2178 69.3495 92.1547 70.1049 93.9976 71.0461C93.9976 71.0461 93.2969 77.654 96.6144 79.5568V89.8564C96.6144 89.8564 96.5135 90.9732 95.0698 92.0849C93.7959 93.0621 90.9137 94.0497 87.4742 93.7705C83.3872 93.4396 81.0305 89.1636 81.0305 89.1636C81.0305 89.1636 80.9243 80.7408 81.5029 77.3955C82.1823 73.4918 83.6791 71.2064 84.3054 70.5653Z" fill="#455A64"/>
<path d="M96.6143 80.0583C96.6143 80.0583 94.608 78.5072 93.9976 76.4907C93.9976 76.4907 94.2364 79.655 96.6143 81.2579V80.0583Z" fill="#37474F"/>
<path d="M115.186 84.9185C116.139 84.9568 117.077 84.6737 117.84 84.1171C117.84 84.1171 118.764 82.3695 119.9 82.5194C119.9 82.5194 120.102 81.7749 119.634 81.5319C119.167 81.2889 118.966 81.3561 118.775 81.0975C118.584 80.839 118.562 80.3582 117.713 80.3582C117.363 80.3582 117.41 80.1152 116.561 80.0169C115.712 79.9187 114.873 81.8266 114.252 81.8266L115.186 84.9185Z" fill="#FFA8A7"/>
<path d="M93.9974 71.0461C96.9115 71.4856 97.9677 72.3284 99.0293 73.2849C100.091 74.2414 106.588 80.5908 106.588 80.5908L114.454 81.6921C114.867 82.0182 115.171 82.4577 115.324 82.9537C115.643 83.8534 115.356 84.8358 115.054 85.0685C115.054 85.0685 107.251 85.5235 105.717 85.2391C104.183 84.9547 96.5877 80.0427 96.5877 80.0427C95.8617 79.5094 95.2528 78.8398 94.797 78.0734C94.3412 77.307 94.0476 76.4594 93.9338 75.5806C93.4401 72.4628 93.9974 71.0461 93.9974 71.0461Z" fill="#455A64"/>
<path d="M87.0017 98.3567L74.9475 112.689C74.8137 112.706 74.679 112.714 74.5441 112.715C74.0662 112.722 73.5938 112.614 73.1694 112.4L62.9889 106.671L62.2989 106.283C61.9221 106.071 61.6089 105.202 61.6089 104.344V101.929C61.6085 99.4491 62.2783 97.0123 63.551 94.864C64.8238 92.7157 66.6546 90.9316 68.8594 89.6909L81.0144 82.8555L93.9497 90.1304L87.0017 98.3567Z" fill="#FF725E"/>
<g opacity="0.1">
<path opacity="0.1" d="M87.0017 98.3567L74.9475 112.689C74.8137 112.706 74.679 112.714 74.5441 112.715C74.0662 112.722 73.5938 112.614 73.1694 112.4L62.9889 106.671L62.2989 106.283C61.9221 106.071 61.6089 105.202 61.6089 104.344V101.929C61.6085 99.4491 62.2783 97.0123 63.551 94.864C64.8238 92.7157 66.6546 90.9316 68.8594 89.6909L81.0144 82.8555L93.9497 90.1304L87.0017 98.3567Z" fill="black"/>
</g>
<path d="M82.8457 103.3L93.9338 90.1356L80.9986 82.8607L68.8489 89.6909C67.2772 90.5772 65.8908 91.7436 64.7618 93.1293L82.8457 103.3Z" fill="#FF725E"/>
<path d="M93.9337 100.704C93.9337 101.562 93.6259 102.431 93.2437 102.643L92.5537 103.031L75.9082 112.395C75.6054 112.554 75.2737 112.654 74.9316 112.689C74.7978 112.706 74.6631 112.715 74.5282 112.715V109.204C74.5278 106.723 75.1982 104.286 76.4719 102.138C77.7457 99.9892 79.5778 98.2055 81.784 96.9659L83.1588 96.1955L93.9337 90.1305V100.704Z" fill="#FF725E"/>
<g opacity="0.2">
<path opacity="0.2" d="M93.9337 100.704C93.9337 101.562 93.6259 102.431 93.2437 102.643L92.5537 103.031L75.9082 112.395C75.6054 112.554 75.2737 112.654 74.9316 112.689C74.7978 112.706 74.6631 112.715 74.5282 112.715V109.204C74.5278 106.723 75.1982 104.286 76.4719 102.138C77.7457 99.9892 79.5778 98.2055 81.784 96.9659L83.1588 96.1955L93.9337 90.1305V100.704Z" fill="black"/>
</g>
<path d="M97.506 118.439L104.019 118.418L113.339 113.175L104.21 119.602L97.3362 119.695L97.506 118.439Z" fill="#E0E0E0"/>
<path d="M81.6939 127.467C81.6939 127.467 93.4349 123.154 94.4327 122.648C95.6039 121.949 96.7151 121.158 97.7555 120.285C97.9678 120.011 98.0675 119.67 98.0351 119.329C98.0027 118.987 97.8405 118.67 97.5803 118.439C97.5803 118.439 92.8032 118.227 91.5771 118.594C90.8924 118.796 79.8414 122.25 79.8414 122.25L81.6939 127.467Z" fill="#E0E0E0"/>
<path d="M81.1684 122.648C80.1971 121.836 79.2204 122.172 78.9816 123.392C78.8904 124.065 78.9635 124.75 79.195 125.391C79.4265 126.031 79.8098 126.61 80.3139 127.079C81.2852 127.891 82.2618 127.56 82.5007 126.334C82.5915 125.661 82.5182 124.976 82.2867 124.336C82.0552 123.695 81.6721 123.117 81.1684 122.648Z" fill="#455A64"/>
</svg>
