<svg width="256" height="252" viewBox="0 0 256 252" fill="none" xmlns="http://www.w3.org/2000/svg">
<path d="M256 169.075H157.791V112.243H256V169.075ZM158.39 168.475H255.401V112.842H158.39V168.475Z" fill="#E0E0E0"/>
<path d="M235.74 142.547H170.944V144.446H235.74V142.547Z" fill="#F0F0F0"/>
<path d="M240.204 149.629H170.944V151.703H240.204V149.629Z" fill="#F0F0F0"/>
<path d="M240.204 156.796H170.944V158.87H240.204V156.796Z" fill="#F0F0F0"/>
<path d="M193.589 132.258H170.944V137.189H193.589V132.258Z" fill="#F0F0F0"/>
<path d="M255.7 112.543H158.109V121.591H255.7V112.543Z" fill="#E0E0E0"/>
<path d="M248.192 120.237C248.066 120.117 249.325 118.601 250.996 116.851C252.668 115.101 254.136 113.777 254.256 113.891C254.376 114.005 253.124 115.527 251.452 117.283C249.78 119.038 248.312 120.357 248.192 120.237Z" fill="white"/>
<path d="M254.268 120.237C254.148 120.357 252.686 119.038 251.008 117.283C249.331 115.527 248.078 114.011 248.204 113.891C248.33 113.771 249.786 115.089 251.464 116.851C253.142 118.613 254.382 120.117 254.268 120.237Z" fill="white"/>
<path d="M135.152 0H37.5601V56.2384H135.152V0Z" fill="#E6E6E6"/>
<path d="M115.197 30.0098H50.4019V31.9094H115.197V30.0098Z" fill="#F0F0F0"/>
<path d="M119.662 37.0928H50.4019V39.1661H119.662V37.0928Z" fill="#F0F0F0"/>
<path d="M119.662 44.2596H50.4019V46.333H119.662V44.2596Z" fill="#F0F0F0"/>
<path d="M73.047 19.7209H50.4019V24.6526H73.047V19.7209Z" fill="#F0F0F0"/>
<path d="M135.152 0H37.5601V9.04848H135.152V0Z" fill="#E0E0E0"/>
<path d="M127.314 7.65227C127.188 7.53841 128.446 6.01635 130.118 4.26658C131.79 2.51681 133.258 1.1925 133.378 1.31234C133.498 1.43219 132.246 2.94826 130.574 4.69803C128.902 6.4478 127.434 7.76013 127.314 7.65227Z" fill="white"/>
<path d="M133.378 7.65224C133.258 7.77209 131.796 6.45376 130.118 4.698C128.44 2.94224 127.188 1.43216 127.314 1.31231C127.44 1.19247 128.896 2.51078 130.574 4.26655C132.252 6.02231 133.504 7.53838 133.378 7.65224Z" fill="white"/>
<path d="M98.1909 104.471H0V47.6334H98.1909V104.471ZM0.599237 103.872H97.5917V48.2326H0.599237V103.872Z" fill="#E0E0E0"/>
<path d="M77.9368 77.9427H13.1414V79.8423H77.9368V77.9427Z" fill="#F0F0F0"/>
<path d="M82.4012 85.0258H13.1414V87.0991H82.4012V85.0258Z" fill="#F0F0F0"/>
<path d="M82.4012 92.1926H13.1414V94.2659H82.4012V92.1926Z" fill="#F0F0F0"/>
<path d="M35.7865 67.6538H13.1414V72.5855H35.7865V67.6538Z" fill="#F0F0F0"/>
<path d="M97.8913 47.933H0.299561V56.9815H97.8913V47.933Z" fill="#E0E0E0"/>
<path d="M211.513 117.492H96.2793V220.657H211.513V117.492Z" fill="#E6E6E6"/>
<path d="M102.074 84.9957H11.8049V178.782H102.074V84.9957Z" fill="#F0F0F0"/>
<path d="M102.074 84.9957H11.8049V95.2127H102.074V84.9957Z" fill="#E0E0E0"/>
<path d="M19.2594 89.9994C19.243 90.3699 19.1181 90.7274 18.9003 91.0276C18.6825 91.3277 18.3814 91.5574 18.0343 91.6879C17.6871 91.8184 17.3093 91.8442 16.9477 91.7619C16.586 91.6796 16.2565 91.493 16 91.2251C15.7435 90.9573 15.5714 90.62 15.5048 90.2551C15.4383 89.8903 15.4804 89.5139 15.6259 89.1728C15.7713 88.8316 16.0137 88.5407 16.3231 88.3361C16.6324 88.1315 16.995 88.0223 17.3659 88.0219C17.8787 88.0345 18.3657 88.2495 18.7205 88.6201C19.0754 88.9906 19.2691 89.4865 19.2594 89.9994Z" fill="white"/>
<path d="M26.9477 89.9994C26.9324 90.3717 26.808 90.7312 26.59 91.0333C26.3719 91.3354 26.0698 91.5667 25.7213 91.6984C25.3728 91.8301 24.9932 91.8564 24.6299 91.7741C24.2665 91.6918 23.9354 91.5044 23.6777 91.2353C23.4201 90.9662 23.2472 90.6273 23.1807 90.2607C23.1141 89.8941 23.1569 89.516 23.3036 89.1736C23.4503 88.8311 23.6944 88.5393 24.0057 88.3345C24.317 88.1298 24.6816 88.0211 25.0541 88.0219C25.567 88.0345 26.054 88.2495 26.4088 88.6201C26.7636 88.9906 26.9574 89.4865 26.9477 89.9994Z" fill="white"/>
<path d="M34.6359 89.9994C34.6207 90.3717 34.4963 90.7312 34.2782 91.0333C34.0601 91.3354 33.758 91.5667 33.4095 91.6984C33.061 91.8301 32.6815 91.8564 32.3181 91.7741C31.9548 91.6918 31.6236 91.5044 31.366 91.2353C31.1083 90.9662 30.9354 90.6273 30.8689 90.2607C30.8024 89.8941 30.8451 89.516 30.9918 89.1736C31.1385 88.8311 31.3827 88.5393 31.6939 88.3345C32.0052 88.1298 32.3698 88.0211 32.7424 88.0219C33.2552 88.0345 33.7422 88.2495 34.0971 88.6201C34.4519 88.9906 34.6456 89.4865 34.6359 89.9994Z" fill="white"/>
<path d="M243.11 20.5119H127.877V135.362H243.11V20.5119Z" fill="#F0F0F0"/>
<path d="M243.11 20.5119H127.877V33.9648H243.11V20.5119Z" fill="#E0E0E0"/>
<path d="M137.693 27.1035C137.671 27.5926 137.507 28.0647 137.22 28.4612C136.933 28.8577 136.536 29.1611 136.078 29.3338C135.62 29.5065 135.121 29.5408 134.643 29.4326C134.166 29.3243 133.731 29.0782 133.392 28.7249C133.053 28.3715 132.826 27.9264 132.738 27.4448C132.65 26.9633 132.705 26.4665 132.897 26.0161C133.089 25.5658 133.409 25.1817 133.817 24.9116C134.226 24.6415 134.704 24.4973 135.194 24.4968C135.87 24.5126 136.513 24.7957 136.981 25.2842C137.45 25.7727 137.705 26.4269 137.693 27.1035Z" fill="white"/>
<path d="M147.083 25.3417C147.415 25.7025 147.634 26.153 147.711 26.6372C147.789 27.1214 147.723 27.6178 147.521 28.0646C147.319 28.5114 146.99 28.8888 146.574 29.1499C146.159 29.4109 145.676 29.544 145.186 29.5325C144.696 29.5211 144.22 29.3656 143.817 29.0855C143.415 28.8054 143.103 28.413 142.922 27.9573C142.741 27.5016 142.698 27.0026 142.799 26.5226C142.899 26.0425 143.139 25.6027 143.487 25.2578C143.976 24.7931 144.628 24.5409 145.302 24.5567C145.976 24.5724 146.616 24.8547 147.083 25.3417Z" fill="white"/>
<path d="M157.935 27.1035C157.914 27.5926 157.749 28.0647 157.462 28.4612C157.175 28.8577 156.778 29.1611 156.32 29.3338C155.862 29.5065 155.363 29.5408 154.886 29.4326C154.408 29.3243 153.973 29.0782 153.634 28.7249C153.296 28.3715 153.068 27.9264 152.98 27.4448C152.892 26.9633 152.948 26.4665 153.139 26.0161C153.331 25.5658 153.651 25.1817 154.06 24.9116C154.468 24.6415 154.946 24.4973 155.436 24.4968C156.113 24.5126 156.755 24.7957 157.224 25.2842C157.692 25.7727 157.948 26.4269 157.935 27.1035Z" fill="white"/>
<path d="M218.218 251.128C218.218 251.212 176.607 251.284 125.294 251.284C73.9818 251.284 32.3528 251.212 32.3528 251.128C32.3528 251.044 73.9578 250.972 125.294 250.972C176.631 250.972 218.218 251.05 218.218 251.128Z" fill="#263238"/>
<path d="M177.674 177.77C168.416 171.304 166.318 159.301 166.684 148.509C166.744 146.711 166.546 144.806 167.403 143.23C168.26 141.654 170.261 140.569 171.873 141.324C173.209 141.953 173.791 143.511 174.54 144.8C175.539 146.516 177.004 147.914 178.764 148.832C179.909 149.432 181.329 149.791 182.462 149.168C184.02 148.311 184.199 146.172 184.187 144.374C184.187 141.03 184.167 137.691 184.128 134.355C184.02 132.564 184.202 130.767 184.667 129.034C185.224 127.332 186.465 125.756 188.16 125.276C189.856 124.797 191.972 125.786 192.355 127.536C192.421 128.277 192.439 129.021 192.409 129.765C192.457 130.514 192.804 131.335 193.506 131.562C194.207 131.79 194.938 131.269 195.477 130.742C197.323 128.944 198.581 126.601 199.75 124.288C200.918 121.975 202.063 119.596 203.741 117.624C205.418 115.653 207.737 114.089 210.332 113.939C212.927 113.789 215.629 115.383 216.277 117.9C216.924 120.417 215.456 122.987 213.88 125.031C211.501 128.064 208.698 130.738 205.556 132.971C204.943 133.306 204.453 133.829 204.16 134.463C203.771 135.661 204.903 136.86 206.084 137.237C207.42 137.681 208.87 137.543 210.278 137.711C211.686 137.878 213.185 138.49 213.718 139.808C214.449 141.642 212.915 143.559 211.411 144.818C208.391 147.334 204.961 149.315 201.272 150.672C199.953 151.152 198.569 151.577 197.502 152.5C196.436 153.423 195.801 155.035 196.442 156.299C197.083 157.563 198.731 157.965 200.115 157.707C201.499 157.45 202.728 156.706 204.046 156.209C206.509 155.28 209.685 155.448 211.237 157.575C211.718 158.308 212.022 159.142 212.126 160.013C212.23 160.883 212.131 161.766 211.836 162.591C211.236 164.234 210.313 165.739 209.122 167.019C205.197 171.709 200.097 175.272 194.344 177.344C188.634 179.322 183.343 179.861 177.668 177.782" fill="#FF725E"/>
<path d="M213.64 115.419C213.64 115.419 213.586 115.479 213.466 115.587L212.933 116.06C212.465 116.48 211.776 117.091 210.907 117.9C208.444 120.187 206.156 122.657 204.064 125.288C202.728 126.948 201.344 128.83 199.869 130.873C198.395 132.917 196.873 135.122 195.363 137.465C193.753 139.936 192.279 142.492 190.947 145.123C190.252 146.495 189.64 147.928 189.011 149.39L187.154 153.854C184.705 159.477 182.572 165.233 180.766 171.094C179.31 175.89 178.307 180.811 177.77 185.793C177.421 189.156 177.365 192.542 177.602 195.914C177.698 197.113 177.788 198.03 177.871 198.653C177.907 198.953 177.931 199.192 177.955 199.366V199.612C177.929 199.534 177.911 199.454 177.901 199.372C177.871 199.198 177.835 198.965 177.787 198.665C177.68 198.066 177.566 197.119 177.458 195.92C177.169 192.542 177.189 189.144 177.518 185.769C178.022 180.766 179.004 175.821 180.448 171.004C182.24 165.127 184.366 159.356 186.818 153.722L188.724 149.276C189.353 147.82 189.97 146.376 190.671 144.997C192.012 142.358 193.499 139.796 195.123 137.321C196.657 134.924 198.203 132.755 199.66 130.73C201.116 128.704 202.524 126.81 203.854 125.157C205.968 122.532 208.286 120.08 210.787 117.822C211.674 117.025 212.381 116.426 212.861 116.024L213.418 115.575C213.486 115.515 213.561 115.463 213.64 115.419Z" fill="#263238"/>
<path d="M190.749 144.985C190.665 144.739 190.606 144.483 190.575 144.224C190.479 143.727 190.372 143.026 190.246 142.115C189.988 140.317 189.724 137.854 189.443 135.128C189.161 132.401 188.844 129.933 188.58 128.153C188.442 127.266 188.322 126.553 188.238 126.055C188.173 125.801 188.139 125.539 188.136 125.276C188.24 125.517 188.314 125.768 188.358 126.026C188.49 126.517 188.64 127.224 188.808 128.117C189.149 129.915 189.485 132.359 189.766 135.092C190.048 137.825 190.288 140.221 190.473 142.085C190.563 142.924 190.641 143.637 190.701 144.206C190.748 144.463 190.764 144.725 190.749 144.985Z" fill="#263238"/>
<path d="M213.808 140.683C213.516 140.746 213.219 140.782 212.921 140.791C212.322 140.845 211.471 140.917 210.416 141.036C208.307 141.264 205.406 141.684 202.224 142.283C199.043 142.882 196.184 143.559 194.129 144.081C193.104 144.344 192.277 144.584 191.732 144.746C191.441 144.849 191.139 144.921 190.833 144.961C191.11 144.822 191.399 144.708 191.696 144.62C192.259 144.422 193.074 144.146 194.093 143.853C196.136 143.254 198.995 142.54 202.189 141.929C204.894 141.412 207.624 141.032 210.368 140.791C211.429 140.701 212.286 140.665 212.885 140.653C213.193 140.632 213.502 140.642 213.808 140.683Z" fill="#263238"/>
<path d="M180.742 170.585C180.678 170.498 180.625 170.403 180.586 170.303L180.19 169.47C179.849 168.745 179.387 167.672 178.836 166.36C177.722 163.724 176.301 160.032 174.791 155.933C173.281 151.835 171.891 148.143 170.836 145.477C170.321 144.182 169.896 143.122 169.578 142.331L169.242 141.474C169.196 141.375 169.164 141.27 169.146 141.162C169.21 141.249 169.263 141.344 169.302 141.444L169.698 142.277C170.033 143.002 170.501 144.075 171.052 145.387C172.167 148.024 173.587 151.715 175.097 155.814C176.607 159.912 177.997 163.604 179.052 166.27C179.567 167.565 179.993 168.625 180.304 169.416C180.442 169.758 180.556 170.015 180.646 170.273C180.692 170.372 180.725 170.477 180.742 170.585Z" fill="#263238"/>
<path d="M211.351 160.715C211.255 160.77 211.152 160.813 211.045 160.841L210.158 161.141L206.881 162.201C204.112 163.1 200.289 164.383 196.094 165.797C191.9 167.211 188.059 168.469 185.272 169.308C183.882 169.734 182.749 170.057 181.964 170.273L181.059 170.507C180.954 170.54 180.846 170.562 180.736 170.573C180.832 170.518 180.935 170.475 181.041 170.447L181.928 170.147L185.206 169.087C187.975 168.188 191.798 166.905 195.992 165.491C200.187 164.077 204.022 162.819 206.809 161.98C208.205 161.554 209.331 161.231 210.122 161.015L211.027 160.781C211.132 160.748 211.241 160.726 211.351 160.715Z" fill="#263238"/>
<path d="M198.863 15.3584L195.777 16.461L194.452 12.4281C192.02 4.99162 184.265 1.04265 177.14 3.55345C170.016 6.06425 166.222 14.2199 168.655 21.6564L169.98 25.6893L166.882 26.7978C165.7 27.2561 164.741 28.1519 164.203 29.2991C163.665 30.4464 163.59 31.7568 163.993 32.958L172.58 59.1986C172.759 59.7932 173.054 60.346 173.451 60.824C173.847 61.302 174.335 61.6955 174.886 61.9811C175.437 62.2668 176.04 62.4387 176.659 62.4867C177.278 62.5348 177.9 62.4579 178.489 62.2607L210.47 50.8213C211.667 50.3638 212.64 49.4601 213.184 48.3C213.728 47.14 213.802 45.8141 213.388 44.6012L204.795 18.3606C204.612 17.7676 204.312 17.2176 203.912 16.7432C203.512 16.2689 203.02 15.8801 202.466 15.5999C201.913 15.3197 201.308 15.1539 200.689 15.1124C200.07 15.0709 199.449 15.1546 198.863 15.3584ZM174.486 19.5531C173.83 17.6195 173.948 15.507 174.814 13.6583C175.681 11.8096 177.23 10.368 179.136 9.63571C180.077 9.31369 181.073 9.18456 182.066 9.25602C183.058 9.32748 184.025 9.59806 184.911 10.0516C185.796 10.5052 186.581 11.1324 187.218 11.8959C187.856 12.6594 188.333 13.5435 188.622 14.4955L189.94 18.5284L175.804 23.5859L174.486 19.5531ZM192.463 42.8394L194.656 49.5389C194.696 49.6732 194.683 49.8179 194.62 49.9429C194.556 50.0679 194.447 50.1635 194.315 50.21L191.241 51.3066C191.118 51.3406 190.987 51.3258 190.876 51.2655C190.764 51.2052 190.68 51.104 190.641 50.983L188.43 44.3135C187.211 44.2471 186.041 43.8098 185.077 43.0601C184.113 42.3105 183.401 41.2843 183.037 40.1189C182.516 38.5782 182.611 36.8956 183.302 35.4235C183.994 33.9513 185.228 32.8037 186.746 32.2209C187.496 31.9648 188.29 31.8622 189.08 31.9193C189.87 31.9763 190.641 32.1919 191.346 32.5532C192.051 32.9144 192.676 33.4139 193.184 34.0219C193.692 34.6299 194.072 35.3339 194.303 36.092C194.688 37.2758 194.72 38.5464 194.394 39.7481C194.069 40.9497 193.4 42.0303 192.469 42.8574L192.463 42.8394Z" fill="#FF725E"/>
<path d="M195.639 16.3891C195.639 16.473 189.916 18.6242 182.797 21.183C175.678 23.7417 169.872 25.7971 169.842 25.7372C169.812 25.6773 175.564 23.508 182.689 20.9433C189.814 18.3786 195.609 16.3112 195.639 16.3891Z" fill="#263238"/>
<path d="M202.434 17.4917C202.461 17.5437 202.483 17.5978 202.5 17.6535C202.548 17.7733 202.602 17.9291 202.674 18.1209C202.83 18.5583 203.045 19.1636 203.315 19.9186L205.616 26.6181C206.575 29.4585 207.719 32.8262 208.99 36.5654C209.589 38.441 210.296 40.3945 210.955 42.4499C211.308 43.5091 211.461 44.6247 211.405 45.7397C211.354 46.3196 211.189 46.8837 210.919 47.3996C210.631 47.9138 210.247 48.3675 209.787 48.7359C208.861 49.4117 207.833 49.9356 206.743 50.2879L203.657 51.3965L197.814 53.4879L187.921 57.0114L181.239 59.3604L179.441 59.9596L178.962 60.1154C178.911 60.1382 178.856 60.1524 178.8 60.1574C178.8 60.1574 178.848 60.1574 178.95 60.0855L179.418 59.8997L181.215 59.2226L187.861 56.7777L197.736 53.1823L203.567 51.0729L206.653 49.9584C207.713 49.6204 208.71 49.1124 209.607 48.4543C210.035 48.1124 210.393 47.6913 210.662 47.2138C210.915 46.7367 211.068 46.2125 211.111 45.6738C211.166 44.5995 211.02 43.5243 210.68 42.5038C210.033 40.4664 209.349 38.495 208.732 36.6193C207.486 32.8741 206.335 29.4944 205.424 26.654C204.514 23.8136 203.747 21.5306 203.219 19.9246C202.968 19.1396 202.776 18.5284 202.62 18.0849L202.476 17.6056C202.458 17.5692 202.444 17.5311 202.434 17.4917Z" fill="#263238"/>
<path d="M185.56 9.22825C185.56 9.22825 185.242 9.07244 184.655 8.83275C183.818 8.51112 182.933 8.33285 182.036 8.30542C180.708 8.25986 179.386 8.50955 178.165 9.03649C176.681 9.69264 175.412 10.7539 174.504 12.0986C173.59 13.4394 173.099 15.0239 173.096 16.6468C173.108 17.9769 173.31 19.2985 173.695 20.5718C174.006 21.6624 174.33 22.5313 174.546 23.1365C174.673 23.444 174.777 23.7604 174.857 24.0833C174.687 23.7959 174.545 23.4929 174.432 23.1785C174.186 22.5792 173.833 21.7283 173.485 20.6317C173.059 19.3451 172.826 18.002 172.796 16.6468C172.78 14.9626 173.282 13.3142 174.234 11.9248C175.174 10.5311 176.495 9.43693 178.039 8.77282C179.298 8.243 180.661 8.00928 182.024 8.08969C182.94 8.13636 183.84 8.34958 184.679 8.71889C184.903 8.82242 185.12 8.9426 185.326 9.07844C185.411 9.11588 185.49 9.16643 185.56 9.22825Z" fill="#263238"/>
<path d="M185.835 32.6764C185.931 32.6184 186.031 32.5683 186.135 32.5265C186.435 32.3912 186.746 32.281 187.064 32.197C187.569 32.0479 188.09 31.9594 188.616 31.9333C189.331 31.8949 190.047 32.0029 190.719 32.2509C192.253 32.7902 193.661 34.3542 194.357 36.4456C194.69 37.5679 194.69 38.7629 194.357 39.8852C193.987 41.1033 193.324 42.2123 192.427 43.1151L192.463 42.9533C193.26 45.1405 194.129 47.5135 195.028 49.9883L195.082 50.1381L194.932 50.192L193.56 50.6475L190.563 51.6482L190.414 51.6961L190.366 51.5463C189.545 49.0655 188.646 46.7524 187.969 44.4813L188.101 44.5832C186.929 44.4859 185.812 44.0462 184.889 43.3188C184.053 42.6753 183.368 41.8573 182.881 40.9219C182.442 40.0923 182.223 39.1637 182.246 38.2253C182.274 37.2662 182.513 36.3251 182.947 35.4694C183.381 34.6136 183.999 33.8645 184.757 33.2756C185.069 33.0225 185.419 32.8202 185.793 32.6764C185.455 32.8772 185.127 33.0952 184.811 33.3295C183.979 34.0335 183.341 34.9393 182.959 35.9602C182.631 36.73 182.478 37.5628 182.51 38.3989C182.542 39.235 182.759 40.0536 183.145 40.796C183.624 41.6959 184.292 42.4811 185.104 43.0971C185.985 43.7885 187.05 44.2053 188.166 44.2956H188.268L188.298 44.3854C188.957 46.6146 189.862 48.9456 190.695 51.4385L190.497 51.3426L193.494 50.3419L194.86 49.8804L194.764 50.0842C193.871 47.6093 193.008 45.2304 192.217 43.0432V42.9533L192.289 42.8814C193.16 42.016 193.81 40.9532 194.183 39.7833C194.501 38.7097 194.501 37.5671 194.183 36.4935C193.53 34.4801 192.181 32.952 190.719 32.4127C190.072 32.1631 189.381 32.0469 188.688 32.0711C188.17 32.083 187.656 32.1533 187.154 32.2809C186.261 32.5026 185.841 32.7063 185.835 32.6764Z" fill="#263238"/>
<path d="M167.313 205.7L107.455 205.424C103.999 205.405 100.691 204.015 98.2582 201.559C95.8257 199.103 94.4675 195.782 94.4818 192.325L95.117 42.2702C95.1241 40.5576 95.4686 38.8632 96.1308 37.2838C96.7931 35.7044 97.7602 34.2711 98.9767 33.0657C100.193 31.8603 101.635 30.9064 103.221 30.2587C104.806 29.6109 106.504 29.282 108.216 29.2907L168.068 29.5663C171.525 29.5838 174.833 30.9725 177.267 33.4275C179.701 35.8824 181.06 39.2029 181.048 42.6597L180.412 192.709C180.405 194.422 180.061 196.117 179.399 197.697C178.737 199.277 177.77 200.711 176.553 201.917C175.337 203.124 173.895 204.079 172.309 204.728C170.724 205.377 169.026 205.707 167.313 205.7Z" fill="#455A64"/>
<path d="M167.978 34.7258H156.377C155.998 34.7328 155.625 34.8143 155.278 34.9657C154.931 35.117 154.617 35.3353 154.354 35.608C154.092 35.8806 153.885 36.2024 153.747 36.5548C153.609 36.9073 153.541 37.2835 153.549 37.662V39.7653C153.556 40.1436 153.488 40.5195 153.35 40.8716C153.211 41.2237 153.005 41.5451 152.742 41.8172C152.479 42.0894 152.166 42.3071 151.819 42.4578C151.472 42.6086 151.098 42.6894 150.72 42.6956L128.105 42.5937C127.34 42.5733 126.614 42.2501 126.087 41.6951C125.56 41.1401 125.275 40.3986 125.294 39.6335V37.5302C125.314 36.7661 125.03 36.0255 124.504 35.4707C123.978 34.9158 123.254 34.5919 122.49 34.5699H118.409L108.252 34.522C105.836 34.5076 103.513 35.4511 101.791 37.1459C100.07 38.8407 99.0896 41.1487 99.0659 43.5645L98.4666 190.03C98.4611 191.228 98.6917 192.416 99.1453 193.526C99.5988 194.635 100.266 195.644 101.11 196.496C101.954 197.347 102.957 198.024 104.062 198.488C105.167 198.951 106.353 199.193 107.551 199.198L167.283 199.474C168.482 199.479 169.671 199.249 170.781 198.795C171.891 198.341 172.901 197.673 173.753 196.829C174.605 195.985 175.282 194.981 175.746 193.875C176.21 192.769 176.452 191.583 176.457 190.384L177.057 43.918C177.071 41.4954 176.123 39.1662 174.42 37.4425C172.718 35.7188 170.401 34.7416 167.978 34.7258Z" fill="white"/>
<path d="M159.942 179.933L115.527 179.741C115.066 179.741 114.694 179.238 114.7 178.627L114.748 167.007C114.748 166.408 115.125 165.893 115.587 165.893L160.002 166.096C160.258 166.141 160.487 166.282 160.641 166.491C160.795 166.7 160.862 166.96 160.829 167.217L160.787 178.824C160.787 179.441 160.404 179.939 159.942 179.933Z" fill="#FF725E"/>
<path d="M130.08 177.394C129.657 177.394 129.251 177.326 128.86 177.19C128.475 177.055 128.177 176.876 127.966 176.654L128.202 176.19C128.408 176.396 128.681 176.564 129.023 176.694C129.364 176.819 129.717 176.881 130.08 176.881C130.59 176.881 130.972 176.789 131.227 176.605C131.481 176.415 131.609 176.171 131.609 175.873C131.609 175.646 131.538 175.464 131.397 175.328C131.262 175.193 131.094 175.09 130.893 175.019C130.693 174.944 130.413 174.862 130.056 174.775C129.627 174.667 129.286 174.564 129.031 174.466C128.776 174.363 128.557 174.209 128.372 174.003C128.194 173.797 128.104 173.518 128.104 173.165C128.104 172.878 128.18 172.618 128.332 172.385C128.484 172.146 128.717 171.957 129.031 171.816C129.346 171.675 129.736 171.604 130.202 171.604C130.527 171.604 130.844 171.65 131.153 171.743C131.468 171.829 131.739 171.951 131.967 172.108L131.763 172.588C131.525 172.431 131.27 172.314 130.999 172.239C130.728 172.157 130.462 172.117 130.202 172.117C129.703 172.117 129.327 172.214 129.072 172.409C128.822 172.599 128.698 172.846 128.698 173.149C128.698 173.377 128.765 173.561 128.901 173.702C129.042 173.838 129.215 173.943 129.421 174.019C129.633 174.09 129.915 174.168 130.267 174.255C130.684 174.358 131.021 174.461 131.275 174.564C131.536 174.662 131.755 174.813 131.934 175.019C132.113 175.22 132.202 175.494 132.202 175.841C132.202 176.128 132.124 176.391 131.967 176.629C131.815 176.863 131.579 177.05 131.259 177.19C130.939 177.326 130.546 177.394 130.08 177.394ZM133.513 171.653H134.115V177.345H133.513V171.653ZM140.724 171.653V177.345H140.228L136.569 172.726V177.345H135.967V171.653H136.463L140.13 176.272V171.653H140.724ZM146.59 174.499H147.168V176.67C146.902 176.903 146.588 177.082 146.224 177.207C145.861 177.331 145.479 177.394 145.078 177.394C144.509 177.394 143.996 177.269 143.541 177.02C143.086 176.77 142.728 176.426 142.468 175.987C142.208 175.543 142.078 175.047 142.078 174.499C142.078 173.952 142.208 173.458 142.468 173.019C142.728 172.575 143.086 172.228 143.541 171.978C143.996 171.729 144.511 171.604 145.086 171.604C145.52 171.604 145.918 171.675 146.281 171.816C146.645 171.951 146.951 172.154 147.2 172.426L146.826 172.808C146.376 172.363 145.804 172.141 145.11 172.141C144.65 172.141 144.232 172.244 143.858 172.45C143.49 172.651 143.2 172.932 142.988 173.296C142.777 173.653 142.671 174.055 142.671 174.499C142.671 174.944 142.777 175.345 142.988 175.702C143.2 176.06 143.49 176.342 143.858 176.548C144.227 176.754 144.642 176.857 145.102 176.857C145.688 176.857 146.184 176.711 146.59 176.418V174.499ZM153.292 177.394C152.555 177.394 151.98 177.182 151.568 176.76C151.156 176.337 150.95 175.721 150.95 174.914V171.653H151.552V174.889C151.552 175.551 151.701 176.044 151.999 176.369C152.297 176.694 152.728 176.857 153.292 176.857C153.861 176.857 154.295 176.694 154.593 176.369C154.891 176.044 155.04 175.551 155.04 174.889V171.653H155.625V174.914C155.625 175.721 155.42 176.337 155.008 176.76C154.601 177.182 154.029 177.394 153.292 177.394ZM159.569 171.653C160.296 171.653 160.865 171.827 161.277 172.173C161.689 172.52 161.895 172.997 161.895 173.605C161.895 174.212 161.689 174.689 161.277 175.036C160.865 175.377 160.296 175.548 159.569 175.548H158.04V177.345H157.439V171.653H159.569ZM159.553 175.019C160.117 175.019 160.548 174.897 160.846 174.654C161.144 174.404 161.293 174.055 161.293 173.605C161.293 173.144 161.144 172.791 160.846 172.548C160.548 172.298 160.117 172.173 159.553 172.173H158.04V175.019H159.553Z" fill="#E8E8E3"/>
<path d="M124.386 77.7811L108.974 77.7111L108.961 80.5395L124.373 80.6094L124.386 77.7811Z" fill="#FF725E"/>
<path opacity="0.1" d="M124.386 77.7811L108.974 77.7111L108.961 80.5395L124.373 80.6094L124.386 77.7811Z" fill="black"/>
<path d="M169.566 95.1468C169.687 95.1346 169.806 95.1064 169.92 95.0629C170.086 94.9981 170.23 94.8878 170.336 94.7447C170.442 94.6016 170.505 94.4315 170.519 94.254C170.519 93.3012 170.519 91.911 170.519 90.1252C170.519 89.2324 170.519 88.2316 170.519 87.129C170.519 86.8594 170.519 86.5777 170.519 86.2961C170.558 86.0228 170.499 85.7445 170.351 85.5111C170.269 85.3992 170.161 85.3079 170.038 85.2445C169.914 85.181 169.777 85.1472 169.638 85.1456H168.703H160.044L109.924 84.9598C109.796 84.9576 109.669 84.9864 109.554 85.0438C109.44 85.1012 109.34 85.1855 109.265 85.2894C109.12 85.5238 109.065 85.8025 109.109 86.0744C109.109 86.6736 109.109 87.2729 109.109 87.8721C109.109 89.0706 109.109 90.269 109.109 91.4675C109.109 92.0668 109.109 92.666 109.109 93.2652C109.084 93.5443 109.084 93.8251 109.109 94.1042C109.141 94.2238 109.199 94.3346 109.28 94.4281C109.361 94.5216 109.463 94.5953 109.577 94.6435C109.695 94.6905 109.821 94.7129 109.948 94.7094H112.998L126.307 94.7813L148.839 94.9191L164.029 95.039L168.158 95.0869H169.231C169.476 95.0869 169.596 95.0869 169.596 95.0869H169.231H168.158H164.029H148.839L126.307 95.015L112.998 94.9611H109.948C109.78 94.9679 109.613 94.9393 109.457 94.8772C109.299 94.8098 109.159 94.7074 109.047 94.5775C108.934 94.4477 108.853 94.294 108.81 94.1281C108.775 93.9709 108.763 93.8094 108.774 93.6487V93.2053C108.774 92.6061 108.774 92.0068 108.774 91.4076C108.774 90.2091 108.774 89.0106 108.774 87.8122C108.774 87.2129 108.774 86.6137 108.774 86.0145C108.762 85.8549 108.762 85.6947 108.774 85.5351C108.796 85.3588 108.864 85.1915 108.971 85.0497C109.075 84.905 109.212 84.7875 109.37 84.7072C109.529 84.6269 109.705 84.5861 109.882 84.5883L160.002 84.8639L168.661 84.9239H169.596C169.761 84.924 169.923 84.9638 170.069 85.0399C170.215 85.1161 170.341 85.2263 170.435 85.3613C170.604 85.6218 170.672 85.935 170.627 86.2422C170.627 86.5238 170.627 86.8055 170.627 87.0751C170.627 88.1657 170.627 89.1664 170.627 90.0713C170.627 91.869 170.585 93.2472 170.573 94.206C170.558 94.3904 170.491 94.5667 170.38 94.7143C170.268 94.8618 170.117 94.9745 169.944 95.039C169.83 95.1092 169.7 95.1466 169.566 95.1468Z" fill="#E0E0E0"/>
<path d="M141.792 87.968H113.604V90.6106H141.792V87.968Z" fill="#FF725E"/>
<path opacity="0.2" d="M141.792 87.968H113.604V90.6106H141.792V87.968Z" fill="white"/>
<path d="M124.281 103.583L108.869 103.513L108.856 106.342L124.268 106.412L124.281 103.583Z" fill="#FF725E"/>
<path opacity="0.1" d="M124.281 103.583L108.869 103.513L108.856 106.342L124.268 106.412L124.281 103.583Z" fill="black"/>
<path d="M169.177 120.95C169.298 120.935 169.418 120.913 169.536 120.884C169.703 120.831 169.857 120.742 169.988 120.624C170.118 120.507 170.221 120.362 170.291 120.201C170.386 119.959 170.422 119.698 170.399 119.44C170.399 119.152 170.399 118.841 170.399 118.493C170.399 117.798 170.399 117.007 170.399 116.096V112.291C170.428 112.016 170.367 111.738 170.225 111.5C170.077 111.256 169.845 111.074 169.572 110.991C169.274 110.937 168.97 110.921 168.667 110.943H160.044L110.098 110.757C109.829 110.758 109.57 110.856 109.368 111.033C109.166 111.211 109.036 111.455 109.001 111.722C109.001 112.291 109.001 112.92 109.001 113.519C109.001 114.718 109.001 115.916 109.001 117.115C109.001 117.714 109.001 118.313 109.001 118.913C108.979 119.193 108.991 119.474 109.037 119.751C109.112 119.994 109.266 120.205 109.475 120.351C109.696 120.491 109.956 120.558 110.218 120.542H111.051H112.782L126.044 120.608L148.497 120.746L163.634 120.866L167.75 120.914H168.823H169.183H168.823H167.75H163.634H148.497L126.032 120.89L112.77 120.842H110.164C109.84 120.861 109.518 120.775 109.247 120.596C108.974 120.408 108.775 120.13 108.684 119.811C108.63 119.507 108.614 119.197 108.636 118.889C108.636 118.289 108.636 117.69 108.636 117.091C108.636 115.892 108.636 114.694 108.636 113.495C108.636 112.896 108.636 112.297 108.636 111.698C108.679 111.355 108.847 111.04 109.106 110.812C109.365 110.583 109.698 110.457 110.044 110.457L159.99 110.733L168.613 110.799C168.934 110.779 169.257 110.801 169.572 110.865C169.883 110.967 170.146 111.18 170.309 111.464C170.464 111.728 170.531 112.034 170.501 112.339C170.501 112.621 170.501 112.896 170.501 113.172C170.501 114.256 170.501 115.251 170.501 116.168C170.501 117.085 170.501 117.858 170.501 118.565C170.501 118.907 170.501 119.224 170.501 119.518C170.523 119.786 170.48 120.055 170.375 120.303C170.297 120.468 170.185 120.615 170.045 120.733C169.906 120.851 169.742 120.937 169.566 120.986C169.435 120.997 169.303 120.985 169.177 120.95Z" fill="#E0E0E0"/>
<path d="M124.165 130.506L108.753 130.436L108.74 133.265L124.152 133.335L124.165 130.506Z" fill="#FF725E"/>
<path opacity="0.1" d="M124.165 130.506L108.753 130.436L108.74 133.265L124.152 133.335L124.165 130.506Z" fill="black"/>
<path d="M169.057 147.862C169.178 147.847 169.298 147.825 169.416 147.796C169.583 147.743 169.736 147.655 169.867 147.538C169.997 147.422 170.101 147.279 170.171 147.119C170.265 146.877 170.302 146.616 170.279 146.358C170.279 146.064 170.279 145.758 170.279 145.405C170.279 144.716 170.279 143.919 170.279 143.008V139.203C170.308 138.927 170.247 138.65 170.105 138.412C169.954 138.172 169.723 137.994 169.452 137.908C169.154 137.853 168.85 137.835 168.547 137.854H159.924L109.978 137.669C109.709 137.669 109.45 137.767 109.248 137.945C109.047 138.122 108.916 138.367 108.881 138.633C108.881 139.233 108.881 139.832 108.881 140.431C108.881 141.63 108.881 142.828 108.881 144.027C108.881 144.626 108.881 145.225 108.881 145.824C108.859 146.102 108.871 146.382 108.917 146.657C108.989 146.902 109.144 147.114 109.355 147.256C109.575 147.4 109.836 147.467 110.098 147.448H112.704L125.966 147.52L148.419 147.658L163.556 147.778L167.672 147.826H168.745C168.985 147.826 169.105 147.826 169.105 147.826C169.105 147.826 168.985 147.826 168.745 147.826H167.672H163.556H148.419L125.966 147.76L112.704 147.706H110.098C109.773 147.728 109.451 147.641 109.181 147.46C108.908 147.271 108.709 146.994 108.618 146.675C108.564 146.371 108.548 146.061 108.57 145.752C108.57 145.153 108.57 144.554 108.57 143.955C108.57 142.756 108.57 141.558 108.57 140.359C108.57 139.76 108.57 139.161 108.57 138.532C108.612 138.189 108.778 137.875 109.036 137.646C109.294 137.418 109.627 137.291 109.972 137.291L159.918 137.567L168.541 137.633C168.862 137.613 169.185 137.635 169.5 137.699C169.812 137.8 170.074 138.014 170.237 138.298C170.392 138.562 170.459 138.868 170.429 139.173C170.429 139.454 170.429 139.736 170.429 140.006C170.429 141.09 170.429 142.085 170.429 143.002C170.429 143.919 170.429 144.692 170.429 145.399C170.429 145.74 170.429 146.058 170.429 146.352C170.452 146.62 170.409 146.889 170.303 147.137C170.225 147.302 170.113 147.449 169.973 147.566C169.834 147.684 169.67 147.771 169.494 147.82C169.354 147.868 169.204 147.882 169.057 147.862Z" fill="#E0E0E0"/>
<path d="M141.19 114.518L113.002 114.39L112.99 117.033L141.178 117.161L141.19 114.518Z" fill="#FF725E"/>
<path opacity="0.2" d="M141.19 114.518L113.002 114.39L112.99 117.033L141.178 117.161L141.19 114.518Z" fill="white"/>
<path d="M115.551 142.972C115.533 143.213 115.445 143.443 115.298 143.635C115.15 143.826 114.95 143.97 114.721 144.049C114.493 144.128 114.246 144.137 114.012 144.077C113.778 144.017 113.567 143.889 113.405 143.71C113.242 143.531 113.136 143.308 113.1 143.069C113.063 142.83 113.097 142.586 113.198 142.366C113.299 142.146 113.462 141.961 113.668 141.834C113.873 141.706 114.111 141.641 114.353 141.648C114.686 141.666 114.999 141.816 115.224 142.064C115.448 142.312 115.566 142.638 115.551 142.972Z" fill="#FF725E"/>
<path d="M119.368 142.99C119.38 143.159 119.357 143.328 119.3 143.488C119.244 143.648 119.155 143.794 119.04 143.918C118.924 144.042 118.784 144.14 118.629 144.208C118.474 144.275 118.306 144.31 118.137 144.31C117.967 144.31 117.8 144.275 117.645 144.208C117.489 144.14 117.35 144.042 117.234 143.918C117.119 143.794 117.03 143.648 116.973 143.488C116.917 143.328 116.894 143.159 116.905 142.99C116.894 142.821 116.917 142.651 116.973 142.492C117.03 142.332 117.119 142.186 117.234 142.062C117.35 141.938 117.489 141.839 117.645 141.772C117.8 141.704 117.967 141.669 118.137 141.669C118.306 141.669 118.474 141.704 118.629 141.772C118.784 141.839 118.924 141.938 119.04 142.062C119.155 142.186 119.244 142.332 119.3 142.492C119.357 142.651 119.38 142.821 119.368 142.99Z" fill="#FF725E"/>
<path d="M123.191 143.008C123.173 143.249 123.085 143.479 122.938 143.671C122.79 143.862 122.59 144.006 122.361 144.085C122.133 144.163 121.886 144.173 121.652 144.113C121.418 144.053 121.207 143.925 121.045 143.746C120.883 143.567 120.777 143.344 120.74 143.105C120.703 142.866 120.737 142.622 120.838 142.402C120.939 142.182 121.103 141.997 121.308 141.87C121.513 141.742 121.751 141.677 121.993 141.684C122.326 141.704 122.638 141.854 122.862 142.101C123.086 142.349 123.204 142.674 123.191 143.008Z" fill="#FF725E"/>
<path d="M127.008 143.026C126.991 143.267 126.903 143.497 126.755 143.689C126.608 143.88 126.407 144.024 126.179 144.103C125.95 144.181 125.703 144.191 125.469 144.131C125.235 144.071 125.024 143.943 124.862 143.764C124.7 143.585 124.594 143.362 124.557 143.123C124.52 142.884 124.555 142.64 124.656 142.42C124.756 142.2 124.92 142.015 125.125 141.888C125.33 141.76 125.568 141.695 125.81 141.702C126.143 141.722 126.455 141.872 126.679 142.119C126.903 142.367 127.021 142.692 127.008 143.026Z" fill="#FF725E"/>
<path d="M130.826 143.038C130.809 143.279 130.722 143.51 130.575 143.703C130.428 143.895 130.228 144.04 130 144.119C129.771 144.199 129.524 144.209 129.29 144.15C129.055 144.09 128.843 143.963 128.681 143.784C128.518 143.605 128.411 143.382 128.374 143.143C128.337 142.904 128.371 142.659 128.472 142.439C128.573 142.219 128.736 142.034 128.941 141.906C129.147 141.778 129.385 141.713 129.627 141.719C129.959 141.74 130.271 141.889 130.494 142.135C130.718 142.381 130.837 142.705 130.826 143.038Z" fill="#FF725E"/>
<path d="M134.649 143.056C134.632 143.296 134.546 143.526 134.401 143.718C134.255 143.91 134.057 144.055 133.83 144.135C133.603 144.216 133.358 144.228 133.124 144.171C132.89 144.114 132.678 143.99 132.514 143.813C132.35 143.637 132.241 143.417 132.2 143.18C132.16 142.943 132.189 142.699 132.286 142.478C132.382 142.257 132.541 142.07 132.742 141.938C132.944 141.807 133.179 141.737 133.42 141.737C133.758 141.75 134.077 141.896 134.307 142.143C134.537 142.39 134.66 142.718 134.649 143.056Z" fill="#FF725E"/>
<path d="M138.466 143.074C138.478 143.243 138.455 143.412 138.398 143.572C138.341 143.732 138.253 143.878 138.137 144.002C138.022 144.126 137.882 144.224 137.727 144.292C137.571 144.359 137.404 144.394 137.234 144.394C137.065 144.394 136.898 144.359 136.742 144.292C136.587 144.224 136.447 144.126 136.332 144.002C136.216 143.878 136.127 143.732 136.071 143.572C136.014 143.412 135.991 143.243 136.003 143.074C135.991 142.905 136.014 142.735 136.071 142.576C136.127 142.416 136.216 142.27 136.332 142.146C136.447 142.022 136.587 141.923 136.742 141.856C136.898 141.788 137.065 141.753 137.234 141.753C137.404 141.753 137.571 141.788 137.727 141.856C137.882 141.923 138.022 142.022 138.137 142.146C138.253 142.27 138.341 142.416 138.398 142.576C138.455 142.735 138.478 142.905 138.466 143.074Z" fill="#FF725E"/>
<path d="M142.283 143.092C142.267 143.332 142.18 143.562 142.035 143.754C141.889 143.946 141.691 144.091 141.464 144.171C141.237 144.252 140.992 144.264 140.758 144.207C140.524 144.15 140.312 144.025 140.148 143.849C139.984 143.673 139.875 143.453 139.835 143.216C139.794 142.979 139.824 142.735 139.92 142.514C140.016 142.293 140.175 142.106 140.377 141.974C140.578 141.843 140.814 141.773 141.054 141.773C141.392 141.786 141.711 141.932 141.941 142.179C142.171 142.426 142.294 142.754 142.283 143.092Z" fill="#FF725E"/>
<path d="M146.1 143.11C146.083 143.351 145.996 143.582 145.85 143.775C145.703 143.967 145.503 144.112 145.274 144.191C145.045 144.271 144.799 144.281 144.564 144.222C144.33 144.162 144.118 144.035 143.955 143.856C143.792 143.677 143.686 143.454 143.649 143.215C143.612 142.976 143.646 142.731 143.746 142.511C143.847 142.291 144.01 142.106 144.216 141.978C144.421 141.85 144.66 141.785 144.902 141.791C145.234 141.812 145.545 141.961 145.769 142.207C145.993 142.453 146.112 142.777 146.1 143.11Z" fill="#FF725E"/>
<g opacity="0.2">
<path opacity="0.2" d="M115.551 142.972C115.533 143.213 115.445 143.443 115.298 143.635C115.15 143.826 114.95 143.97 114.721 144.049C114.493 144.128 114.246 144.137 114.012 144.077C113.778 144.017 113.567 143.889 113.405 143.71C113.242 143.531 113.136 143.308 113.1 143.069C113.063 142.83 113.097 142.586 113.198 142.366C113.299 142.146 113.462 141.961 113.668 141.834C113.873 141.706 114.111 141.641 114.353 141.648C114.686 141.666 114.999 141.816 115.224 142.064C115.448 142.312 115.566 142.638 115.551 142.972Z" fill="white"/>
<path opacity="0.2" d="M119.368 142.99C119.38 143.159 119.357 143.328 119.3 143.488C119.244 143.648 119.155 143.794 119.04 143.918C118.924 144.042 118.784 144.14 118.629 144.208C118.474 144.275 118.306 144.31 118.137 144.31C117.967 144.31 117.8 144.275 117.645 144.208C117.489 144.14 117.35 144.042 117.234 143.918C117.119 143.794 117.03 143.648 116.973 143.488C116.917 143.328 116.894 143.159 116.905 142.99C116.894 142.821 116.917 142.651 116.973 142.492C117.03 142.332 117.119 142.186 117.234 142.062C117.35 141.938 117.489 141.839 117.645 141.772C117.8 141.704 117.967 141.669 118.137 141.669C118.306 141.669 118.474 141.704 118.629 141.772C118.784 141.839 118.924 141.938 119.04 142.062C119.155 142.186 119.244 142.332 119.3 142.492C119.357 142.651 119.38 142.821 119.368 142.99Z" fill="white"/>
<path opacity="0.2" d="M123.191 143.008C123.174 143.249 123.086 143.479 122.938 143.671C122.791 143.862 122.59 144.006 122.362 144.085C122.133 144.163 121.886 144.173 121.652 144.113C121.418 144.053 121.207 143.925 121.045 143.746C120.883 143.567 120.777 143.344 120.74 143.105C120.703 142.866 120.738 142.622 120.839 142.402C120.94 142.182 121.103 141.997 121.308 141.87C121.513 141.742 121.751 141.677 121.993 141.684C122.326 141.704 122.638 141.854 122.862 142.101C123.086 142.349 123.205 142.674 123.191 143.008Z" fill="white"/>
<path opacity="0.2" d="M127.009 143.026C126.991 143.267 126.903 143.497 126.755 143.689C126.608 143.88 126.407 144.024 126.179 144.103C125.95 144.181 125.704 144.191 125.47 144.131C125.236 144.071 125.024 143.943 124.862 143.764C124.7 143.585 124.594 143.362 124.557 143.123C124.521 142.884 124.555 142.64 124.656 142.42C124.757 142.2 124.92 142.015 125.125 141.887C125.33 141.76 125.568 141.695 125.81 141.701C126.143 141.722 126.455 141.872 126.68 142.119C126.904 142.367 127.022 142.692 127.009 143.026Z" fill="white"/>
<path opacity="0.2" d="M130.826 143.038C130.809 143.279 130.722 143.51 130.575 143.703C130.428 143.895 130.228 144.04 130 144.119C129.771 144.199 129.524 144.209 129.29 144.15C129.055 144.09 128.843 143.963 128.681 143.784C128.518 143.605 128.411 143.382 128.374 143.143C128.337 142.904 128.371 142.659 128.472 142.439C128.573 142.219 128.736 142.034 128.941 141.906C129.147 141.778 129.385 141.713 129.627 141.719C129.959 141.74 130.271 141.889 130.494 142.135C130.718 142.381 130.837 142.705 130.826 143.038Z" fill="white"/>
<path opacity="0.2" d="M134.649 143.056C134.632 143.296 134.546 143.526 134.401 143.718C134.255 143.91 134.057 144.055 133.83 144.135C133.603 144.216 133.358 144.228 133.124 144.171C132.89 144.114 132.678 143.99 132.514 143.813C132.35 143.637 132.241 143.417 132.2 143.18C132.16 142.943 132.189 142.699 132.286 142.478C132.382 142.257 132.541 142.07 132.742 141.938C132.944 141.807 133.179 141.737 133.42 141.737C133.758 141.75 134.077 141.896 134.307 142.143C134.537 142.39 134.66 142.718 134.649 143.056Z" fill="white"/>
<path opacity="0.2" d="M138.466 143.074C138.478 143.243 138.455 143.412 138.398 143.572C138.341 143.732 138.253 143.878 138.137 144.002C138.022 144.126 137.882 144.224 137.727 144.292C137.571 144.359 137.404 144.394 137.234 144.394C137.065 144.394 136.898 144.359 136.742 144.292C136.587 144.224 136.447 144.126 136.332 144.002C136.216 143.878 136.127 143.732 136.071 143.572C136.014 143.412 135.991 143.243 136.003 143.074C135.991 142.905 136.014 142.735 136.071 142.576C136.127 142.416 136.216 142.27 136.332 142.146C136.447 142.022 136.587 141.923 136.742 141.856C136.898 141.788 137.065 141.753 137.234 141.753C137.404 141.753 137.571 141.788 137.727 141.856C137.882 141.923 138.022 142.022 138.137 142.146C138.253 142.27 138.341 142.416 138.398 142.576C138.455 142.735 138.478 142.905 138.466 143.074Z" fill="white"/>
<path opacity="0.2" d="M142.283 143.092C142.267 143.332 142.18 143.562 142.035 143.754C141.889 143.946 141.691 144.091 141.464 144.171C141.237 144.252 140.992 144.264 140.758 144.207C140.524 144.15 140.312 144.025 140.148 143.849C139.984 143.673 139.875 143.453 139.835 143.216C139.794 142.979 139.824 142.735 139.92 142.514C140.016 142.293 140.175 142.106 140.377 141.974C140.578 141.843 140.814 141.773 141.054 141.773C141.392 141.786 141.711 141.932 141.941 142.179C142.171 142.426 142.294 142.754 142.283 143.092Z" fill="white"/>
<path opacity="0.2" d="M146.1 143.11C146.083 143.351 145.996 143.582 145.85 143.775C145.703 143.967 145.503 144.112 145.274 144.191C145.045 144.271 144.799 144.281 144.564 144.222C144.33 144.162 144.118 144.035 143.955 143.856C143.792 143.677 143.686 143.454 143.649 143.215C143.612 142.976 143.646 142.731 143.746 142.511C143.847 142.291 144.01 142.106 144.216 141.978C144.421 141.85 144.66 141.785 144.902 141.791C145.234 141.812 145.545 141.961 145.769 142.207C145.993 142.453 146.112 142.777 146.1 143.11Z" fill="white"/>
</g>
<path d="M140.677 56.6039C141.093 56.4206 141.447 56.1189 141.693 55.7364C141.939 55.3539 142.067 54.9075 142.061 54.4527C142.077 54.157 142.032 53.8613 141.93 53.5835C141.827 53.3058 141.669 53.0517 141.465 52.837C141.262 52.6222 141.016 52.4512 140.744 52.3343C140.472 52.2174 140.179 52.1572 139.883 52.1572C139.587 52.1572 139.294 52.2174 139.022 52.3343C138.75 52.4512 138.505 52.6222 138.301 52.837C138.097 53.0517 137.939 53.3058 137.837 53.5835C137.734 53.8613 137.689 54.157 137.705 54.4527C137.696 54.912 137.823 55.3638 138.07 55.751C138.318 56.1381 138.674 56.4433 139.095 56.6279C135.739 57.1313 135.889 60.7746 135.889 60.7746L143.823 60.8106C143.823 60.8106 144.009 57.1013 140.677 56.6039Z" fill="#FF725E"/>
<path opacity="0.1" d="M140.677 56.6039C141.093 56.4206 141.447 56.1189 141.693 55.7364C141.939 55.3539 142.067 54.9075 142.061 54.4527C142.077 54.157 142.032 53.8613 141.93 53.5835C141.827 53.3058 141.669 53.0517 141.465 52.837C141.262 52.6222 141.016 52.4512 140.744 52.3343C140.472 52.2174 140.179 52.1572 139.883 52.1572C139.587 52.1572 139.294 52.2174 139.022 52.3343C138.75 52.4512 138.505 52.6222 138.301 52.837C138.097 53.0517 137.939 53.3058 137.837 53.5835C137.734 53.8613 137.689 54.157 137.705 54.4527C137.696 54.912 137.823 55.3638 138.07 55.751C138.318 56.1381 138.674 56.4433 139.095 56.6279C135.739 57.1313 135.889 60.7746 135.889 60.7746L143.823 60.8106C143.823 60.8106 144.009 57.1013 140.677 56.6039Z" fill="black"/>
<path d="M153.569 63.1604L125.292 63.0321L125.276 66.4118L153.554 66.5401L153.569 63.1604Z" fill="#FF725E"/>
<path opacity="0.2" d="M153.569 63.1604L125.292 63.0321L125.276 66.4118L153.554 66.5401L153.569 63.1604Z" fill="white"/>
<path d="M49.6107 80.6753H49.3291L48.5141 80.7352C48.0731 80.7617 47.6345 80.8198 47.2018 80.909C46.9215 80.9483 46.6435 81.0023 46.3689 81.0708L45.4401 81.3284C43.8592 81.8135 42.3676 82.5522 41.0237 83.5157C39.2481 84.8045 37.7654 86.4546 36.6732 88.3575C36.0313 89.4544 35.5204 90.6229 35.1512 91.8391C34.7631 93.1608 34.5397 94.5254 34.486 95.9019C34.4503 96.625 34.4623 97.3496 34.522 98.0711C34.522 98.4367 34.6238 98.8022 34.6718 99.1737C34.7121 99.5482 34.7822 99.9189 34.8815 100.282C35.4204 102.687 36.5137 104.932 38.0743 106.839C39.6349 108.746 41.6196 110.262 43.8701 111.266C45.4988 111.969 47.2446 112.361 49.0175 112.423C50.8486 112.524 52.6815 112.261 54.4106 111.65L54.938 111.452H55.0099L55.0698 111.488L62.6262 115.323L62.4045 115.515C61.5955 113.01 60.8165 110.583 60.0614 108.252V108.162L60.1274 108.096C61.9604 106.25 63.3212 103.989 64.0943 101.505C64.7945 99.2336 64.9989 96.8386 64.6935 94.4817C64.4219 92.3871 63.7485 90.3646 62.7101 88.5253C61.815 86.9453 60.6603 85.5273 59.2944 84.3306C58.1675 83.3835 56.9203 82.5896 55.5851 81.9696C54.5749 81.5339 53.5228 81.2026 52.4451 80.9809L51.2467 80.7831L50.3778 80.7172L49.8504 80.6813H49.6707C49.7304 80.6746 49.7907 80.6746 49.8504 80.6813H50.3838L51.2527 80.7172L52.4511 80.891C53.5422 81.0965 54.6087 81.4158 55.6331 81.8438C56.9912 82.4564 58.2609 83.2484 59.4083 84.1988C60.7993 85.3901 61.9784 86.8084 62.8958 88.3934C63.9637 90.2525 64.6579 92.3024 64.9392 94.4278C65.2699 96.8211 65.0798 99.2576 64.3819 101.571C63.6038 104.107 62.222 106.416 60.3551 108.3L60.391 108.144C61.1461 110.475 61.9311 112.902 62.746 115.401L62.8599 115.767L62.5183 115.593L54.9619 111.764H55.0938L54.5545 111.961C52.7921 112.582 50.9252 112.85 49.0595 112.752C47.2484 112.683 45.4661 112.277 43.8041 111.554C40.634 110.196 37.9965 107.837 36.2957 104.837C35.513 103.451 34.9415 101.956 34.5999 100.402C34.5063 100.029 34.4363 99.6511 34.3901 99.2696C34.3422 98.8921 34.2643 98.5205 34.2463 98.149C34.0841 96.0169 34.3095 93.8729 34.9115 91.8211C35.2899 90.5882 35.815 89.4053 36.4755 88.2976C37.5937 86.3774 39.1073 84.7168 40.9158 83.4258C42.2819 82.4598 43.7985 81.7268 45.4041 81.2565L46.3449 81.0168C46.6218 80.9526 46.9018 80.9026 47.1838 80.867C47.6211 80.7861 48.0637 80.738 48.5082 80.7232L49.3291 80.6933C49.4225 80.6807 49.5166 80.6747 49.6107 80.6753Z" fill="#FF725E"/>
<path d="M53.0263 94.6495H51.9177L49.5208 91.2818V89.0706C49.5208 89.0706 47.807 88.9627 48.0107 91.857C48.2144 94.7513 48.0107 94.0143 48.0107 94.0143C48.0107 94.0143 44.3733 94.0143 44.0737 94.3439C43.7741 94.6735 43.7561 98.185 43.7142 100.144C43.6912 100.617 43.8267 101.083 44.0993 101.47C44.3718 101.856 44.7656 102.141 45.2183 102.278C45.3451 102.313 45.4761 102.331 45.6078 102.332C46.5186 102.332 51.1507 101.595 51.1507 101.595H53.0623L53.0263 94.6495Z" fill="#FF725E"/>
<path d="M56.1963 94.0562L55.5132 101.631H53.6196V94.212L56.1963 94.0562Z" fill="#FF725E"/>
<path d="M78.7815 248.258V243.134L69.5952 243.068L69.5173 250.817L70.0866 250.859C72.6214 251.02 82.9822 251.26 84.684 250.733C86.5776 250.145 78.7815 248.258 78.7815 248.258Z" fill="#FF725E"/>
<path d="M84.8998 250.253C84.8998 250.337 81.4602 250.409 77.2236 250.409C72.987 250.409 69.5474 250.337 69.5474 250.253C69.5474 250.169 72.987 250.098 77.2236 250.098C81.4602 250.098 84.8998 250.169 84.8998 250.253Z" fill="#263238"/>
<path d="M78.9433 249.307C78.8654 249.265 78.9433 248.995 79.1291 248.707C79.3149 248.42 79.5665 248.3 79.6265 248.36C79.6864 248.42 79.5606 248.647 79.3808 248.893C79.201 249.139 79.0212 249.348 78.9433 249.307Z" fill="#263238"/>
<path d="M79.5305 249.642C79.4466 249.642 79.4886 249.307 79.6684 248.989C79.8481 248.671 80.0878 248.48 80.1537 248.528C80.2197 248.575 80.1118 248.845 79.944 249.127C79.7762 249.408 79.6084 249.672 79.5305 249.642Z" fill="#263238"/>
<path d="M72.3159 250.229C72.28 250.229 72.1421 250.121 71.9444 249.894C71.703 249.601 71.4341 249.332 71.1414 249.091C70.8536 248.861 70.5107 248.71 70.1467 248.653C69.865 248.617 69.6853 248.653 69.6673 248.617C69.6493 248.581 69.8231 248.456 70.1527 248.432C70.5876 248.422 71.0119 248.567 71.3511 248.839C71.669 249.098 71.937 249.413 72.1421 249.768C72.28 250.032 72.3519 250.205 72.3159 250.229Z" fill="#263238"/>
<path d="M78.9734 248.342C79.0153 248.414 78.8595 248.593 78.5958 248.689C78.3322 248.785 78.0985 248.749 78.0865 248.689C78.0745 248.629 78.2603 248.504 78.488 248.42C78.7157 248.336 78.9254 248.27 78.9734 248.342Z" fill="#263238"/>
<path d="M78.8295 247.844C78.8295 247.934 78.5898 248.006 78.2782 248.012C77.9666 248.018 77.7209 247.946 77.7269 247.862C77.7329 247.778 77.9786 247.701 78.2782 247.695C78.5778 247.689 78.8175 247.76 78.8295 247.844Z" fill="#263238"/>
<path d="M101.403 248.258V243.134L92.2166 243.068L92.1387 250.739L92.7079 250.781C95.2427 250.942 105.61 251.26 107.305 250.733C109.199 250.145 101.403 248.258 101.403 248.258Z" fill="#FF725E"/>
<path d="M107.521 250.265C107.521 250.349 104.087 250.421 99.8448 250.421C95.6022 250.421 92.1746 250.349 92.1746 250.265C92.1746 250.181 95.6082 250.109 99.8448 250.109C104.081 250.109 107.521 250.181 107.521 250.265Z" fill="#263238"/>
<path d="M101.565 249.307C101.493 249.265 101.565 248.995 101.75 248.707C101.936 248.42 102.188 248.3 102.248 248.36C102.308 248.42 102.182 248.647 102.002 248.893C101.822 249.139 101.642 249.348 101.565 249.307Z" fill="#263238"/>
<path d="M102.152 249.642C102.074 249.642 102.11 249.307 102.296 248.989C102.482 248.671 102.715 248.48 102.781 248.528C102.847 248.575 102.733 248.845 102.565 249.127C102.398 249.408 102.236 249.672 102.152 249.642Z" fill="#263238"/>
<path d="M94.937 250.229C94.901 250.229 94.7692 250.121 94.5655 249.894C94.3241 249.601 94.0552 249.332 93.7625 249.091C93.4747 248.861 93.1318 248.71 92.7678 248.653C92.4921 248.617 92.3064 248.653 92.2884 248.617C92.2704 248.581 92.4442 248.456 92.7738 248.432C93.2087 248.422 93.633 248.567 93.9722 248.839C94.2917 249.096 94.56 249.412 94.7632 249.768C94.9011 250.032 94.973 250.205 94.937 250.229Z" fill="#263238"/>
<path d="M101.594 248.342C101.636 248.414 101.481 248.593 101.217 248.689C100.953 248.785 100.72 248.749 100.708 248.689C100.696 248.629 100.881 248.504 101.109 248.42C101.337 248.336 101.547 248.27 101.594 248.342Z" fill="#263238"/>
<path d="M101.463 247.844C101.463 247.934 101.223 248.006 100.911 248.012C100.6 248.018 100.36 247.946 100.366 247.862C100.372 247.778 100.612 247.701 100.911 247.695C101.211 247.689 101.463 247.76 101.463 247.844Z" fill="#263238"/>
<path d="M135.248 96.1116C135.008 95.8659 134.415 95.9857 134.415 95.9857C134.474 95.6407 134.474 95.2881 134.415 94.9431C134.307 94.6075 133.552 94.6734 133.552 94.6734C133.517 94.3908 133.517 94.1051 133.552 93.8225C133.558 93.7599 133.544 93.6969 133.513 93.6422C133.482 93.5875 133.435 93.5437 133.378 93.5169C133.021 93.3712 132.637 93.3018 132.251 93.3132C131.79 92.9836 133.66 90.3649 134.355 89.526C135.05 88.687 134.924 88.0339 134.307 88.0339C133.881 88.0339 131.7 90.5507 131.029 91.3956C130.358 92.2405 128.578 94.5895 128.518 92.7139C128.458 90.8383 127.703 89.4241 127.23 89.1844C126.756 88.9447 126.253 89.508 126.511 90.0293C126.737 90.6216 126.878 91.243 126.93 91.875C126.995 92.3784 126.973 92.8892 126.864 93.3851C126.666 94.3076 126.395 95.2132 126.055 96.0936H126.007C126.007 96.0936 112.932 108.636 111.985 109.528C111.14 110.331 94.146 108.576 90.7364 108.216C89.5777 108.047 88.4077 107.966 87.2368 107.976C85.7567 108.042 85.493 108.252 84.0189 108.27C80.2961 108.311 76.582 108.638 72.9091 109.247C71.246 109.53 69.6925 110.264 68.4181 111.369C67.1437 112.474 66.1973 113.908 65.6823 115.515C62.2486 126.241 54.4705 151.631 53.0983 165.893C52.0613 167.773 51.1252 169.707 50.2939 171.687C49.3291 174.312 49.5628 174.402 49.8864 174.462C50.7613 174.624 51.756 169.914 52.1275 171.052C52.499 172.191 50.2399 176.667 51.1568 176.799C52.3552 176.967 53.308 172.005 53.4219 171.609C53.5357 171.214 54.129 171.34 54.0211 171.711C53.8473 172.239 52.1635 177.83 53.338 178.009C53.9852 178.105 54.0571 176.925 54.0571 176.925C54.0571 176.925 55.2555 171.573 55.8008 171.681C56.3461 171.789 55.7649 174.947 55.4892 176.002C55.2136 177.057 55.5971 177.59 56.1604 177.332C56.5439 177.152 57.4607 173.946 57.7124 172.904C57.9641 171.861 58.5933 168.973 59.4382 170.645C60.2831 172.317 61.5655 173.287 62.0928 173.311C62.2117 173.298 62.3237 173.249 62.4144 173.171C62.5052 173.093 62.5706 172.99 62.6022 172.874C62.6337 172.759 62.6301 172.637 62.5916 172.523C62.5532 172.41 62.4817 172.311 62.3865 172.239C61.9329 171.796 61.5436 171.291 61.2299 170.741C60.9504 170.311 60.7476 169.837 60.6307 169.338C60.3892 168.344 60.2487 167.328 60.2112 166.306L60.1153 165.707C61.4576 159.061 65.3227 139.556 70.9016 127.098L73.1907 131.808L74.1854 135.296L68.0852 150.355L94.1041 150.013L90.221 135.068L94.937 119.488C100.037 119.602 113.13 119.793 115.311 118.805C118.056 117.606 132.251 99.677 132.251 99.677C133.177 98.958 134.063 98.1899 134.906 97.376C134.906 97.376 135.769 96.6509 135.248 96.1116Z" fill="#FFBE9D"/>
<path d="M66.9406 139.227C67.6956 136.65 71.5727 123.91 71.5727 123.91C71.5727 123.91 73.4782 134.295 72.9749 135.547C72.5119 136.62 71.9648 137.653 71.3389 138.639C66.9406 145.333 67.5158 148.683 67.5158 148.683L94.092 147.874C94.1519 144.158 91.9527 135.517 91.4973 134.139C91.0419 132.761 92.5579 128.249 92.5579 128.249C92.5579 128.249 95.5541 125.199 95.4463 123.629C95.3893 122.218 95.215 120.815 94.9249 119.434L111.104 120.033L110.595 109.067L87.3566 106.742C86.5476 109.025 79.2309 107.905 79.2309 107.905C71.333 108.168 70.8416 109.618 67.5578 112.171C64.2739 114.724 58.8389 136.632 58.8389 136.632L66.9406 139.227Z" fill="#FF725E"/>
<path d="M82.6526 136.632C82.1921 136.714 81.723 136.738 81.2564 136.704C80.3875 136.704 79.195 136.644 77.8827 136.512C76.5704 136.38 75.3839 136.195 74.539 136.027C74.0731 135.967 73.6163 135.85 73.1787 135.679C73.6472 135.679 74.1147 135.724 74.5749 135.811C75.4259 135.919 76.6063 136.069 77.9127 136.201C79.219 136.332 80.4055 136.422 81.2624 136.482C81.7295 136.488 82.195 136.538 82.6526 136.632Z" fill="#263238"/>
<path d="M84.4742 134.373C84.0135 134.599 83.5263 134.766 83.0241 134.87C80.6333 135.498 78.1668 135.791 75.6954 135.739C75.184 135.756 74.6726 135.707 74.1733 135.595C74.6781 135.532 75.1868 135.506 75.6954 135.517C76.6362 135.487 77.9306 135.422 79.3567 135.254C80.7829 135.086 82.0533 134.846 82.9522 134.655C83.4514 134.521 83.9603 134.427 84.4742 134.373Z" fill="#263238"/>
<path d="M93.4149 124.294C93.4028 124.751 93.3405 125.205 93.2292 125.648C93.0734 126.481 92.8337 127.619 92.5281 128.866C92.2224 130.112 91.9288 131.263 91.6652 132.042C91.5591 132.488 91.4023 132.92 91.1978 133.33C91.2311 132.875 91.3156 132.424 91.4494 131.988C91.6771 131.053 91.9348 129.974 92.2225 128.794C92.5101 127.613 92.7857 126.535 93.0134 125.6C93.0946 125.15 93.2294 124.712 93.4149 124.294Z" fill="#263238"/>
<path d="M67.2222 137.699C65.8359 137.485 64.4677 137.166 63.1294 136.746C61.7619 136.426 60.4199 136.005 59.1145 135.487C60.5001 135.705 61.868 136.023 63.2073 136.44C64.5751 136.759 65.9172 137.179 67.2222 137.699Z" fill="#263238"/>
<path d="M95.2127 119.302C94.9867 119.341 94.7557 119.341 94.5296 119.302C93.9037 119.238 93.2891 119.091 92.7019 118.865C91.7217 118.496 90.8293 117.927 90.0821 117.193C89.3349 116.459 88.7495 115.578 88.3635 114.604C87.9368 113.533 87.7545 112.381 87.8301 111.23C87.8569 110.282 88.1406 109.358 88.6511 108.558C89.0102 108.019 89.5465 107.622 90.1672 107.437C90.333 107.391 90.5045 107.369 90.6765 107.371C90.7964 107.371 90.8563 107.371 90.8563 107.371C90.8563 107.371 90.6046 107.371 90.2031 107.533C89.6337 107.743 89.1508 108.138 88.8309 108.654C88.0159 109.936 87.7882 112.279 88.6571 114.466C89.0615 115.498 89.6946 116.424 90.5087 117.175C91.1758 117.789 91.9442 118.284 92.7798 118.637C93.5641 118.947 94.3799 119.17 95.2127 119.302Z" fill="#263238"/>
<path d="M109.181 119.817C109.031 117.98 108.983 116.135 109.037 114.292C108.99 112.451 109.046 110.609 109.205 108.773C109.355 110.609 109.403 112.452 109.349 114.292C109.399 116.136 109.343 117.981 109.181 119.817Z" fill="#263238"/>
<path d="M87.2007 107.413C87.2667 106.077 87.4045 104.567 87.4045 104.567C87.4045 104.567 90.7123 104.201 90.91 100.786C91.1078 97.37 90.91 89.49 90.91 89.49L84.9176 86.4219L78.2661 91.6533L79.2908 108.732L85.391 109.121C85.8573 109.134 86.3097 108.961 86.649 108.641C86.9882 108.321 87.1866 107.879 87.2007 107.413Z" fill="#FFBE9D"/>
<path d="M87.794 98.0831C87.794 98.0831 87.794 98.149 87.7401 98.2269C87.6955 98.2834 87.6378 98.3282 87.5721 98.3575C87.5063 98.3867 87.4344 98.3995 87.3626 98.3947C86.9791 98.3947 86.6075 97.9513 86.4757 97.4359C86.413 97.1861 86.413 96.9247 86.4757 96.6749C86.488 96.5659 86.5273 96.4616 86.5901 96.3716C86.6529 96.2816 86.7372 96.2087 86.8352 96.1596C86.9158 96.1263 87.0063 96.1263 87.0869 96.1596C87.1467 96.1892 87.1951 96.2376 87.2248 96.2974C87.2667 96.3992 87.2248 96.4652 87.2248 96.4592C87.2248 96.4532 87.2247 96.3992 87.1648 96.3393C87.1335 96.2964 87.0874 96.2666 87.0355 96.2555C86.9835 96.2444 86.9293 96.2529 86.8832 96.2794C86.8097 96.3238 86.7486 96.3862 86.7056 96.4605C86.6627 96.5349 86.6392 96.619 86.6375 96.7049C86.5871 96.9277 86.5871 97.1591 86.6375 97.382C86.7573 97.8494 87.0809 98.2269 87.3686 98.2629C87.4248 98.2705 87.4821 98.2665 87.5367 98.251C87.5914 98.2355 87.6422 98.209 87.6862 98.173C87.7581 98.125 87.782 98.0771 87.794 98.0831Z" fill="#EB996E"/>
<path d="M92.9655 87.6444C92.5041 86.0744 90.8322 85.2954 89.3101 84.8639C86.9911 84.2048 84.4863 83.9171 82.2212 84.7501C79.9561 85.583 77.2355 87.0451 77.2355 89.544C75.8992 89.4361 75.1322 90.6046 74.6049 92.0548C74.2677 92.9383 74.0657 93.8675 74.0056 94.8113C73.8378 98.0831 72.921 102.601 70.7997 104.998C69.6012 106.335 67.9414 107.257 67.2582 108.923C66.659 110.367 66.9706 112.081 66.4133 113.543C65.9159 114.832 64.8193 115.749 64.0164 116.869C63.1983 118.14 62.7169 119.599 62.6173 121.107C62.5177 122.616 62.8032 124.124 63.4471 125.492C64.0956 126.825 65.0086 128.012 66.1305 128.98C67.2524 129.948 68.5597 130.678 69.9728 131.125C72.7718 131.977 75.7567 132.006 78.5718 131.209C80.6846 130.704 82.6555 129.726 84.3365 128.351C86.0565 126.946 87.2378 124.99 87.6802 122.814C88.1057 120.369 87.4226 117.882 86.9132 115.449C85.3192 107.761 85.7746 107.359 87.7881 100.222C87.836 100.097 87.86 99.9647 87.8959 99.8389C87.9319 99.713 87.9499 99.6531 87.9739 99.5572C88.031 99.2751 88.0611 98.9881 88.0637 98.7003C87.7697 98.8097 87.4505 98.8328 87.1437 98.767C86.8369 98.7012 86.5553 98.5491 86.3319 98.3288C86.1081 98.0938 85.952 97.8026 85.8803 97.4861C85.8085 97.1696 85.8238 96.8396 85.9245 96.5311C86.0658 96.1936 86.2765 95.8897 86.5428 95.6388C86.8092 95.388 87.1252 95.1959 87.4705 95.0749C88.1356 94.7993 88.8487 94.6555 89.5019 94.3498C90.8861 93.6907 91.8449 92.3244 92.4981 90.8922C93.0351 89.8996 93.2008 88.7481 92.9655 87.6444Z" fill="#263238"/>
<path d="M88.0338 98.2449C88.1604 98.4319 88.2649 98.633 88.3454 98.8441C88.5251 99.2216 88.7648 99.755 89.0285 100.372L89.0764 100.486H88.9506L88.3514 100.54C87.9379 100.54 87.5903 100.618 87.1829 100.612C87.1474 100.604 87.1145 100.587 87.0872 100.563C87.06 100.539 87.0393 100.508 87.0271 100.474C87.0092 100.42 87.0092 100.361 87.0271 100.306C87.0409 100.225 87.0589 100.145 87.081 100.067L87.1888 99.6411C87.243 99.3573 87.3274 99.08 87.4405 98.8141C87.4294 99.1035 87.3872 99.3908 87.3147 99.6711L87.2308 100.097C87.2008 100.24 87.1469 100.462 87.2308 100.444C87.5304 100.444 87.9559 100.378 88.3514 100.354L88.9506 100.3L88.8727 100.432C88.615 99.8328 88.3993 99.2696 88.2735 98.8801C88.1631 98.6811 88.0823 98.4671 88.0338 98.2449Z" fill="#FF725E"/>
<path d="M67.5159 148.683L94.092 147.874L105.657 193.02L103.53 244.806H89.4779L91.1977 194.123L80.9208 162.693L82.5028 246.814L68.3008 247.023L66.8087 167.954C66.7428 165.755 66.0237 160.799 66.2934 158.618L67.5159 148.683Z" fill="#263238"/>
<path d="M84.4565 163.334C84.0215 163.361 83.5847 163.335 83.1561 163.256C82.3531 163.16 81.2565 162.992 80.0521 162.753C78.8476 162.513 77.769 162.237 76.99 162.016C76.5736 161.924 76.1707 161.779 75.7915 161.584C75.7915 161.494 77.745 161.962 80.142 162.447C82.5389 162.933 84.4684 163.244 84.4565 163.334Z" fill="#455A64"/>
<path d="M103.386 241.966C103.386 242.05 100.204 242.122 96.2792 242.122C92.3542 242.122 89.1663 242.05 89.1663 241.966C89.1663 241.882 92.3482 241.81 96.2792 241.81C100.21 241.81 103.386 241.876 103.386 241.966Z" fill="#455A64"/>
<path d="M82.3771 244.626C82.3771 244.716 79.285 244.782 75.4739 244.782C71.6627 244.782 68.5767 244.716 68.5767 244.626C68.5767 244.537 71.6687 244.471 75.4739 244.471C79.279 244.471 82.3771 244.543 82.3771 244.626Z" fill="#455A64"/>
<path d="M80.5434 244.411C80.4595 244.411 80.088 226.032 79.7104 203.363C79.3329 180.694 79.1112 162.303 79.1891 162.303C79.267 162.303 79.6505 180.676 80.022 203.357C80.3936 226.038 80.6333 244.411 80.5434 244.411Z" fill="#455A64"/>
<path d="M101.499 241.966C101.492 241.884 101.492 241.802 101.499 241.72V241.001C101.499 240.354 101.546 239.425 101.582 238.245C101.666 235.848 101.786 232.366 101.936 228.1C102.26 219.518 102.715 207.69 103.212 194.632C103.212 194.506 103.212 194.386 103.212 194.279V194.321C100.066 181.737 97.22 170.315 95.1526 162.052L92.7557 152.278C92.48 151.134 92.2703 150.241 92.1205 149.617C92.0486 149.324 92.0006 149.096 91.9587 148.922C91.9353 148.844 91.9213 148.764 91.9167 148.683C91.9479 148.758 91.9719 148.836 91.9887 148.916C92.0366 149.084 92.0965 149.312 92.1804 149.6C92.3422 150.199 92.5759 151.11 92.8755 152.248C93.4748 154.561 94.3197 157.893 95.3743 161.998C97.4597 170.255 100.336 181.647 103.524 194.249V194.291C103.524 194.398 103.524 194.524 103.524 194.644C102.991 207.702 102.505 219.524 102.152 228.106C101.966 232.378 101.81 235.836 101.702 238.245C101.642 239.443 101.594 240.354 101.564 241.001C101.564 241.307 101.529 241.546 101.523 241.72C101.523 241.803 101.515 241.885 101.499 241.966Z" fill="#455A64"/>
<path d="M96.9146 193.224C95.9053 193.556 94.8655 193.787 93.8105 193.913C92.5162 194.135 91.4136 194.291 90.9162 194.315V194.195C91.078 194.243 91.1619 194.273 91.1619 194.297C91.1619 194.321 91.06 194.297 90.8923 194.297H90.5327L90.8923 194.189C91.3597 194.051 92.4623 193.823 93.7566 193.589C94.7947 193.364 95.8525 193.242 96.9146 193.224Z" fill="#455A64"/>
<path d="M96.6689 194.944C95.7342 194.987 94.7975 194.944 93.8704 194.818C92.9344 194.799 92.0019 194.696 91.084 194.512C92.9567 194.359 94.8418 194.505 96.6689 194.944Z" fill="#455A64"/>
<path opacity="0.2" d="M67.4021 149.635C67.7168 150.04 68.1133 150.373 68.5655 150.613C69.0178 150.854 69.5157 150.997 70.0268 151.032C71.0971 151.158 72.1798 151.138 73.2447 150.972C80.1059 150.211 87.3747 149.51 94.0921 147.874C85.3972 148.359 76.2109 148.197 67.516 148.683L67.4261 149.426" fill="black"/>
<g opacity="0.2">
<path opacity="0.2" d="M76.3606 161.89L81.2623 180.91L80.9208 162.693L76.3606 161.89Z" fill="black"/>
</g>
</svg>
