<svg width="19" height="21" viewBox="0 0 19 21" fill="none" xmlns="http://www.w3.org/2000/svg">
<path d="M8.34271 15.8401C9.16434 15.8401 9.97793 15.6681 10.737 15.3339C11.4961 14.9998 12.1858 14.51 12.7668 13.8925C13.3478 13.2751 13.8087 12.5421 14.1231 11.7353C14.4375 10.9286 14.5993 10.064 14.5993 9.19077C14.5993 8.31757 14.4375 7.45292 14.1231 6.64619C13.8087 5.83946 13.3478 5.10644 12.7668 4.489C12.1858 3.87155 11.4961 3.38177 10.737 3.04761C9.97793 2.71345 9.16434 2.54146 8.34271 2.54146C6.68334 2.54146 5.09194 3.24201 3.9186 4.489C2.74525 5.73598 2.08607 7.42726 2.08607 9.19077C2.08607 10.9543 2.74525 12.6456 3.9186 13.8925C5.09194 15.1395 6.68334 15.8401 8.34271 15.8401ZM14.933 14.6277L18.6662 18.5951C18.7657 18.6974 18.845 18.8198 18.8996 18.955C18.9542 19.0903 18.9828 19.2357 18.9839 19.3828C18.985 19.53 18.9586 19.6759 18.906 19.8121C18.8535 19.9482 18.776 20.0719 18.678 20.1759C18.58 20.2798 18.4636 20.362 18.3354 20.4177C18.2072 20.4733 18.0699 20.5012 17.9314 20.4999C17.7929 20.4985 17.6561 20.4678 17.5289 20.4096C17.4018 20.3514 17.2868 20.2669 17.1906 20.161L13.4575 16.1936C11.7812 17.5765 9.67203 18.2285 7.55933 18.0168C5.44663 17.8052 3.48923 16.7458 2.0856 15.0544C0.681973 13.363 -0.0623704 11.1667 0.00409707 8.91252C0.0705645 6.65838 0.942847 4.51588 2.44337 2.92118C3.9439 1.32648 5.95987 0.399456 8.08089 0.328817C10.2019 0.258178 12.2685 1.04924 13.8601 2.54096C15.4516 4.03268 16.4484 6.11293 16.6476 8.35822C16.8467 10.6035 16.2332 12.8451 14.932 14.6266L14.933 14.6277Z" fill="white"/>
</svg>
