<svg width="13" height="13" viewBox="0 0 13 13" fill="none" xmlns="http://www.w3.org/2000/svg">
<path d="M12.9635 6.5C12.9635 6.7874 12.8536 7.06522 12.6482 7.2664C12.4475 7.47237 12.1704 7.58733 11.8837 7.58733H7.56409V11.9175C7.56409 12.2049 7.44941 12.4827 7.24394 12.6839C7.04325 12.885 6.77089 13 6.48419 13C6.1975 13 5.92036 12.885 5.71967 12.6839C5.5142 12.4827 5.39952 12.2049 5.39952 11.9175V7.58733H1.07995C0.793256 7.58733 0.516116 7.47237 0.315428 7.2664C0.11474 7.06522 6.10352e-05 6.7874 6.10352e-05 6.5C6.10352e-05 6.2126 0.11474 5.93957 0.315428 5.7336C0.516116 5.53242 0.793256 5.41747 1.07995 5.41747H5.39952V1.08732C5.39952 0.799926 5.5142 0.522108 5.71967 0.320929C5.92036 0.114959 6.1975 0 6.48419 0C6.77089 0 7.04325 0.114959 7.24394 0.320929C7.44941 0.522108 7.56409 0.799926 7.56409 1.08732V5.41747H11.8837C12.1704 5.41747 12.4475 5.53242 12.6482 5.7336C12.8536 5.93957 12.9635 6.2126 12.9635 6.5Z" fill="white"/>
</svg>
