<svg width="18" height="18" viewBox="0 0 18 18" fill="none" xmlns="http://www.w3.org/2000/svg">
<rect width="18" height="18" fill="white"/>
<path d="M16.0448 7.35947C16.0448 7.35947 15.1872 8.13853 13.754 9.06778C13.363 6.79472 12.2785 3.98869 10.1309 0.5625C10.1309 0.5625 9.42863 4.23759 7.08975 7.71609C6.0691 6.14166 5.63119 4.90556 5.63119 4.90556C-1.728 12.2403 4.37231 17.4375 8.2035 17.4375C13.1209 17.4375 17.4482 15.086 16.0448 7.35947ZM8.4555 16.9684C7.38394 16.9684 4.99219 16.2214 3.83597 12.7825C3.83597 12.7825 4.25138 12.9952 4.92694 13.2413C4.9545 12.0524 5.43235 10.5311 6.65494 8.61188C6.65494 8.61188 6.9615 9.43594 7.67588 10.4856C9.31304 8.16638 9.80466 5.71528 9.80466 5.71528C11.3082 8.00044 12.0673 9.87159 12.3413 11.3872C13.3442 10.7674 13.9447 10.2476 13.9447 10.2476C13.8763 11.7728 13.5818 12.9682 13.1558 13.9025C13.8265 13.7925 14.2504 13.6755 14.2504 13.6755C12.319 16.4031 10.37 16.9684 8.4555 16.9684Z" fill="#2F2E41"/>
<path d="M6.15859 12.3339C6.15859 12.3339 6.9475 13.41 7.54741 13.1501C7.54741 13.1501 8.68788 11.3779 10.3245 10.3927C10.3245 10.3927 9.98838 13.0944 10.3748 13.572C10.8873 14.207 12.2758 12.8677 12.2758 12.8677C12.2758 14.4641 10.5233 16.4756 8.95535 16.4756C7.39863 16.4756 5.19166 14.7442 6.15859 12.3339Z" fill="#2F2E41"/>
<path d="M14.0175 5.09566C14.6084 4.24038 15.01 3.36429 15.01 3.36429C16.0009 4.98851 15.4162 5.97626 14.9808 6.29885C14.3966 6.73254 13.3355 6.08426 14.0175 5.09566Z" fill="#2F2E41"/>
<path d="M3.23353 4.81809C2.65528 3.82669 2.59031 2.59116 2.59031 2.59116C1.17759 4.71375 1.7294 5.86969 2.19937 6.21956C2.82993 6.68925 3.90093 5.96363 3.23353 4.81809Z" fill="#2F2E41"/>
<path d="M6.52015 2.61311C6.59215 1.94683 6.31287 1.2558 6.31287 1.2558C7.65274 2.11755 7.63671 2.86821 7.46205 3.16042C7.22665 3.55249 6.43662 3.38289 6.52015 2.61311Z" fill="#2F2E41"/>
</svg>
