<svg version="1.2" baseProfile="tiny-ps" xmlns="http://www.w3.org/2000/svg" viewBox="0 0 10 11" width="18" height="20">
	<title>Vector-1-svg</title>
	<style>
		tspan { white-space:pre }
		.shp0 { fill: none;stroke: #ffffff;stroke-linecap:round;stroke-linejoin:round;stroke-width: 2 } 
	</style>
	<path id="Layer copy" class="shp0" d="M-3.09 11.92C-3.07 11.67 -2.95 11.44 -2.77 11.27C-2.58 11.1 -2.34 11 -2.09 11L11.82 11.04C12.07 11.04 12.31 11.13 12.49 11.3C12.68 11.47 12.79 11.71 12.81 11.96L13.66 22.88C13.68 23.15 13.65 23.43 13.56 23.69C13.47 23.95 13.32 24.19 13.14 24.39C12.95 24.6 12.72 24.76 12.47 24.87C12.21 24.98 11.94 25.04 11.67 25.03L-2 25C-2.28 25 -2.55 24.95 -2.8 24.83C-3.05 24.72 -3.28 24.56 -3.47 24.36C-3.66 24.15 -3.8 23.91 -3.89 23.65C-3.98 23.39 -4.01 23.12 -3.99 22.84L-3.09 11.92L-3.09 11.92Z" />
	<path id="Layer" class="shp0" d="M9 10L9 5C9 3.94 8.58 2.92 7.83 2.17C7.08 1.42 6.06 1 5 1C3.94 1 2.92 1.42 2.17 2.17C1.42 2.92 1 3.94 1 5L1 10" />
</svg>