<svg width="24" height="25" viewBox="0 0 24 25" fill="none" xmlns="http://www.w3.org/2000/svg">
<path fill-rule="evenodd" clip-rule="evenodd" d="M13 11.3108C11.1362 11.3108 9.57006 10.0404 9.12602 8.32112H2V6.32797H9.12602C9.57006 4.60866 11.1362 3.33826 13 3.33826C15.2091 3.33826 17 5.12298 17 7.32454C17 9.52611 15.2091 11.3108 13 11.3108ZM19 6.32797H22V8.32112H19V6.32797ZM8 21.2766C6.13616 21.2766 4.57006 20.0061 4.12602 18.2868H2V16.2937H4.12602C4.57006 14.5744 6.13616 13.304 8 13.304C10.2091 13.304 12 15.0887 12 17.2903C12 19.4918 10.2091 21.2766 8 21.2766ZM14 18.2868H22V16.2937H14V18.2868ZM10 17.2903C10 18.391 9.10457 19.2834 8 19.2834C6.89543 19.2834 6 18.391 6 17.2903C6 16.1895 6.89543 15.2971 8 15.2971C9.10457 15.2971 10 16.1895 10 17.2903ZM15 7.32454C15 8.42533 14.1046 9.31769 13 9.31769C11.8954 9.31769 11 8.42533 11 7.32454C11 6.22376 11.8954 5.3314 13 5.3314C14.1046 5.3314 15 6.22376 15 7.32454Z" fill="#2E2E41"/>
</svg>
